<svg xmlns="http://www.w3.org/2000/svg" width="800" height="600" viewBox="0 0 800 600">
  <rect width="100%" height="100%" fill="white"/>
  <path d="M 44.74 531.13 L 48.41 528.50" fill="none" stroke="black" stroke-width="1"/>
  <path d="M 78.02 498.25 L 81.61 495.48" fill="none" stroke="black" stroke-width="1"/>
  <path d="M 59.53 461.92 L 55.96 464.52" fill="none" stroke="black" stroke-width="1"/>
  <path d="M 33.64 420.41 L 37.37 417.41" fill="none" stroke="black" stroke-width="1"/>
  <path d="M 66.95 376.39 L 70.43 373.37" fill="none" stroke="black" stroke-width="1"/>
  <path d="M 103.73 406.53 L 100.42 409.55" fill="none" stroke="black" stroke-width="1"/>
  <path d="M 157.27 399.15 L 158.13 403.33" fill="none" stroke="black" stroke-width="1"/>
  <path d="M 160.98 387.97 L 162.64 383.68" fill="none" stroke="black" stroke-width="1"/>
  <path d="M 163.08 372.24 L 164.93 368.29" fill="none" stroke="black" stroke-width="1"/>
  <path d="M 170.76 363.65 L 170.04 365.06 L 169.32 366.54 L 168.47 367.98 L 167.73 369.45 L 166.91 370.96 L 166.05 372.36 L 165.14 373.88 L 164.35 375.28 L 163.54 376.71 L 162.69 378.19 L 161.90 379.71 L 161.15 381.09 L 160.48 382.52 L 159.78 383.97 L 159.21 385.38 L 158.66 386.83 L 158.29 388.26 L 157.84 389.66 L 157.66 391.07 L 157.41 392.45 L 157.38 393.78 L 157.40 395.20 L 157.54 396.62 L 157.76 397.91 L 158.12 399.23 L 158.44 400.60 L 158.94 401.92 L 159.36 403.25 L 159.92 404.56 L 160.46 405.89 L 161.02 407.17 L 161.67 408.52 L 162.27 409.78 L 162.93 411.14 L 163.53 412.43 L 164.16 413.77 L 164.67 415.13 L 165.31 416.41 L 165.81 417.78 L 166.30 419.06" fill="none" stroke="black" stroke-width="1"/>
  <path d="M 161.86 430.13 L 161.38 427.95 L 160.87 425.69 L 160.22 423.52 L 159.70 421.26 L 159.10 419.04 L 158.43 416.82 L 157.74 414.62 L 157.14 412.39 L 156.58 410.21 L 155.89 407.95 L 155.36 405.72 L 154.77 403.51 L 154.30 401.30 L 153.85 399.08 L 153.55 396.84 L 153.19 394.64 L 153.05 392.39 L 152.88 390.21 L 152.90 388.05 L 152.98 385.78 L 153.32 383.62 L 153.55 381.34 L 154.00 379.11 L 154.54 376.91 L 155.16 374.70 L 155.87 372.48 L 156.71 370.28 L 157.46 368.04 L 158.33 365.88 L 159.26 363.61 L 160.22 361.37 L 161.17 359.18 L 162.09 356.93 L 163.14 354.75 L 164.14 352.57 L 165.08 350.32 L 165.97 348.07 L 166.92 345.88 L 167.79 343.61 L 168.59 341.45" fill="none" stroke="black" stroke-width="1"/>
  <path d="M 176.87 332.60 L 177.95 328.30" fill="none" stroke="black" stroke-width="1"/>
  <path d="M 179.27 310.58 L 180.32 306.27" fill="none" stroke="black" stroke-width="1"/>
  <path d="M 183.41 288.30 L 184.58 284.18" fill="none" stroke="black" stroke-width="1"/>
  <path d="M 190.77 286.14 L 189.98 288.64 L 189.11 291.00 L 188.23 293.39 L 187.32 295.85 L 186.44 298.29 L 185.45 300.70 L 184.52 303.11 L 183.55 305.54 L 182.58 307.94 L 181.70 310.38 L 180.83 312.88 L 179.95 315.24 L 179.18 317.62 L 178.36 320.11 L 177.63 322.51 L 176.98 325.01 L 176.49 327.51 L 175.90 329.93 L 175.58 332.35 L 175.15 334.90 L 174.98 337.45 L 174.78 339.90 L 174.79 342.37 L 174.76 344.95 L 174.95 347.54 L 175.02 350.02 L 175.23 352.63 L 175.50 355.12 L 175.84 357.74 L 176.14 360.23 L 176.50 362.74 L 176.88 365.36 L 177.28 367.93 L 177.66 370.49 L 178.07 373.05 L 178.42 375.62 L 178.78 378.24 L 179.11 380.74 L 179.37 383.25 L 179.65 385.84" fill="none" stroke="black" stroke-width="1"/>
  <path d="M 183.47 376.95 L 184.30 372.59" fill="none" stroke="black" stroke-width="1"/>
  <path d="M 179.46 350.56 L 179.77 355.09" fill="none" stroke="black" stroke-width="1"/>
  <path d="M 203.68 362.00 L 200.00 364.73" fill="none" stroke="black" stroke-width="1"/>
  <path d="M 195.12 401.29 L 195.86 401.24 L 196.66 401.07 L 197.41 401.00 L 198.19 400.86 L 198.98 400.70 L 199.71 400.65 L 200.53 400.50 L 201.22 400.43 L 202.00 400.32 L 202.74 400.22 L 203.49 400.11 L 204.27 400.00 L 205.06 399.84 L 205.82 399.79 L 206.63 399.72 L 207.40 399.57 L 208.18 399.49 L 209.00 399.35 L 209.86 399.22 L 210.64 399.13 L 211.48 399.00 L 212.33 398.91 L 213.20 398.76 L 214.05 398.69 L 215.00 398.59 L 215.81 398.46 L 216.63 398.36 L 217.59 398.24 L 218.44 398.16 L 219.38 398.01 L 220.23 397.94 L 221.19 397.78 L 222.11 397.73 L 223.00 397.55 L 223.92 397.45 L 224.82 397.33 L 225.71 397.22 L 226.62 397.10 L 227.54 396.97 L 228.40 396.87" fill="none" stroke="black" stroke-width="1"/>
  <path d="M 246.06 388.11 L 246.32 383.46" fill="none" stroke="black" stroke-width="1"/>
  <path d="M 247.91 376.93 L 248.41 372.75" fill="none" stroke="black" stroke-width="1"/>
  <path d="M 233.82 354.27 L 236.24 350.59" fill="none" stroke="black" stroke-width="1"/>
  <path d="M 236.13 343.64 L 238.05 339.48" fill="none" stroke="black" stroke-width="1"/>
  <path d="M 233.88 332.42 L 235.63 328.16" fill="none" stroke="black" stroke-width="1"/>
  <path d="M 232.52 321.77 L 233.26 317.37" fill="none" stroke="black" stroke-width="1"/>
  <path d="M 228.42 308.24 L 228.43 307.80 L 228.38 307.31 L 228.32 306.83 L 228.27 306.32 L 228.22 305.88 L 228.13 305.30 L 228.08 304.81 L 227.98 304.27 L 227.95 303.71 L 227.85 303.25 L 227.88 302.83 L 227.77 302.28 L 227.73 301.83 L 227.75 301.38 L 227.78 301.00 L 227.83 300.58 L 227.87 300.29 L 228.04 299.91 L 228.20 299.65 L 228.40 299.38 L 228.64 299.20 L 228.93 299.02 L 229.25 298.98 L 229.61 298.81 L 229.95 298.73 L 230.41 298.73 L 230.85 298.75 L 231.32 298.74 L 231.86 298.76 L 232.29 298.82 L 232.78 298.82 L 233.31 298.95 L 233.80 299.01 L 234.35 299.10 L 234.92 299.14 L 235.37 299.24 L 235.85 299.23 L 236.37 299.34 L 236.86 299.38 L 237.30 299.38" fill="none" stroke="black" stroke-width="1"/>
  <path d="M 223.90 303.84 L 224.34 303.83 L 224.75 303.83 L 225.17 303.81 L 225.54 303.78 L 225.91 303.69 L 226.30 303.72 L 226.73 303.69 L 227.05 303.65 L 227.50 303.65 L 227.81 303.59 L 228.19 303.56 L 228.62 303.55 L 229.04 303.49 L 229.50 303.54 L 229.95 303.50 L 230.48 303.59 L 231.02 303.62 L 231.57 303.69 L 232.18 303.73 L 232.82 303.87 L 233.54 304.04 L 234.24 304.13 L 235.00 304.27 L 235.80 304.46 L 236.63 304.65 L 237.49 304.86 L 238.43 305.07 L 239.28 305.30 L 240.25 305.58 L 241.13 305.77 L 242.05 306.03 L 243.03 306.27 L 244.01 306.54 L 244.95 306.78 L 245.91 307.06 L 246.86 307.28 L 247.78 307.53 L 248.73 307.77 L 249.66 307.93 L 250.54 308.22" fill="none" stroke="black" stroke-width="1"/>
  <path d="M 250.63 308.28 L 251.33 308.15 L 251.97 308.03 L 252.62 307.90 L 253.35 307.75 L 254.11 307.57 L 254.75 307.45 L 255.39 307.27 L 256.15 307.15 L 256.81 306.96 L 257.54 306.86 L 258.16 306.70 L 258.91 306.59 L 259.61 306.40 L 260.25 306.35 L 260.96 306.32 L 261.54 306.17 L 262.10 306.16 L 262.76 306.05 L 263.40 306.06 L 263.91 306.01 L 264.48 305.98 L 264.98 306.05 L 265.51 306.11 L 265.97 306.17 L 266.47 306.22 L 266.90 306.36 L 267.28 306.53 L 267.78 306.60 L 268.16 306.78 L 268.63 306.87 L 268.97 307.05 L 269.45 307.17 L 269.84 307.33 L 270.27 307.48 L 270.65 307.57 L 271.09 307.78 L 271.48 307.98 L 271.92 308.06 L 272.35 308.24 L 272.79 308.31" fill="none" stroke="black" stroke-width="1"/>
  <path d="M 272.76 303.83 L 272.83 303.94 L 272.79 304.04 L 272.85 304.12 L 272.89 304.24 L 273.01 304.38 L 273.02 304.43 L 273.04 304.56 L 273.16 304.62 L 273.26 304.67 L 273.28 304.81 L 273.26 304.90 L 273.36 305.01 L 273.40 305.09 L 273.37 305.23 L 273.38 305.38 L 273.28 305.47 L 273.24 305.67 L 273.07 305.75 L 272.85 305.88 L 272.71 306.06 L 272.49 306.24 L 272.19 306.41 L 271.82 306.61 L 271.51 306.79 L 271.17 307.01 L 270.71 307.21 L 270.21 307.45 L 269.82 307.65 L 269.33 307.82 L 268.86 308.11 L 268.40 308.37 L 267.85 308.58 L 267.35 308.82 L 266.82 309.05 L 266.28 309.30 L 265.81 309.52 L 265.37 309.75 L 264.82 309.98 L 264.36 310.16 L 263.90 310.43" fill="none" stroke="black" stroke-width="1"/>
  <path d="M 262.91 328.39 L 260.77 332.30" fill="none" stroke="black" stroke-width="1"/>
  <path d="M 265.03 339.46 L 262.86 343.42" fill="none" stroke="black" stroke-width="1"/>
  <path d="M 292.85 369.05 L 297.07 367.51" fill="none" stroke="black" stroke-width="1"/>
  <path d="M 311.23 376.57 L 313.77 372.92" fill="none" stroke="black" stroke-width="1"/>
  <path d="M 316.09 354.71 L 317.78 350.40" fill="none" stroke="black" stroke-width="1"/>
  <path d="M 319.77 332.45 L 318.76 328.13" fill="none" stroke="black" stroke-width="1"/>
  <path d="M 317.57 310.20 L 316.50 306.05" fill="none" stroke="black" stroke-width="1"/>
  <path d="M 312.62 290.45 L 313.21 293.01 L 313.81 295.59 L 314.49 298.18 L 315.13 300.78 L 315.84 303.39 L 316.51 305.99 L 317.23 308.62 L 317.92 311.21 L 318.66 313.85 L 319.28 316.42 L 319.95 319.04 L 320.56 321.59 L 321.10 324.14 L 321.70 326.71 L 322.22 329.25 L 322.64 331.76 L 323.02 334.20 L 323.34 336.71 L 323.47 339.15 L 323.73 341.55 L 323.77 343.93 L 323.79 346.25 L 323.67 348.50 L 323.55 350.85 L 323.25 353.12 L 323.06 355.35 L 322.70 357.53 L 322.37 359.77 L 322.00 361.89 L 321.54 364.14 L 321.12 366.28 L 320.62 368.48 L 320.18 370.58 L 319.67 372.80 L 319.15 374.92 L 318.74 377.13 L 318.26 379.25 L 317.87 381.49 L 317.44 383.64 L 317.13 385.90" fill="none" stroke="black" stroke-width="1"/>
  <path d="M 308.23 399.17 L 307.21 399.30 L 306.24 399.39 L 305.19 399.50 L 304.25 399.60 L 303.23 399.66 L 302.25 399.82 L 301.30 399.90 L 300.26 400.04 L 299.33 400.10 L 298.27 400.25 L 297.25 400.35 L 296.28 400.47 L 295.28 400.52 L 294.29 400.69 L 293.23 400.79 L 292.30 400.91 L 291.26 401.00 L 290.31 401.12 L 289.27 401.27 L 288.31 401.34 L 287.37 401.39 L 286.32 401.56 L 285.30 401.65 L 284.32 401.77 L 283.27 401.94 L 282.33 401.99 L 281.31 402.15 L 280.33 402.21 L 279.37 402.27 L 278.34 402.43 L 277.27 402.56 L 276.34 402.64 L 275.38 402.77 L 274.34 402.86 L 273.32 403.01 L 272.34 403.08 L 271.36 403.25 L 270.35 403.29 L 269.39 403.34 L 268.35 403.51" fill="none" stroke="black" stroke-width="1"/>
  <path d="M 263.83 416.88 L 264.98 417.31 L 266.04 417.85 L 267.19 418.39 L 268.22 418.95 L 269.36 419.53 L 270.38 420.11 L 271.42 420.67 L 272.53 421.29 L 273.55 421.89 L 274.70 422.44 L 275.79 422.99 L 276.89 423.50 L 277.97 424.02 L 279.11 424.42 L 280.24 424.77 L 281.38 425.13 L 282.48 425.31 L 283.70 425.60 L 284.91 425.71 L 286.10 425.77 L 287.35 425.72 L 288.58 425.60 L 289.80 425.41 L 291.13 425.12 L 292.48 424.78 L 293.74 424.40 L 295.03 423.96 L 296.39 423.48 L 297.72 422.97 L 299.08 422.42 L 300.39 421.78 L 301.79 421.26 L 303.19 420.64 L 304.51 420.08 L 305.84 419.49 L 307.23 418.91 L 308.53 418.35 L 309.93 417.81 L 311.28 417.31 L 312.59 416.83" fill="none" stroke="black" stroke-width="1"/>
  <path d="M 312.66 416.89 L 311.28 416.54 L 309.97 416.17 L 308.65 415.71 L 307.25 415.35 L 305.83 414.89 L 304.52 414.48 L 303.15 414.10 L 301.78 413.60 L 300.43 413.19 L 299.05 412.75 L 297.63 412.33 L 296.34 411.96 L 295.03 411.59 L 293.66 411.28 L 292.38 410.95 L 291.04 410.74 L 289.76 410.62 L 288.48 410.39 L 287.26 410.30 L 286.00 410.26 L 284.83 410.38 L 283.61 410.38 L 282.48 410.61 L 281.29 410.73 L 280.18 410.99 L 279.04 411.26 L 277.89 411.65 L 276.83 411.94 L 275.71 412.37 L 274.67 412.72 L 273.63 413.10 L 272.52 413.57 L 271.52 414.04 L 270.39 414.45 L 269.32 414.93 L 268.25 415.31 L 267.13 415.75 L 266.09 416.12 L 265.03 416.46 L 263.90 416.84" fill="none" stroke="black" stroke-width="1"/>
  <path d="M 277.11 416.85 L 277.54 417.17 L 278.00 417.58 L 278.43 418.04 L 278.89 418.41 L 279.29 418.82 L 279.77 419.29 L 280.28 419.77 L 280.66 420.18 L 281.11 420.55 L 281.55 421.04 L 281.98 421.38 L 282.44 421.84 L 282.90 422.24 L 283.33 422.53 L 283.71 422.75 L 284.22 423.08 L 284.70 423.20 L 285.11 423.44 L 285.52 423.45 L 286.00 423.57 L 286.39 423.53 L 286.89 423.45 L 287.31 423.33 L 287.78 423.10 L 288.19 422.87 L 288.68 422.56 L 289.07 422.20 L 289.58 421.88 L 290.01 421.42 L 290.47 421.09 L 290.91 420.64 L 291.37 420.23 L 291.79 419.76 L 292.26 419.35 L 292.67 418.93 L 293.16 418.48 L 293.62 418.01 L 294.06 417.66 L 294.48 417.32 L 294.95 416.94" fill="none" stroke="black" stroke-width="1"/>
  <path d="M 294.91 416.85 L 294.53 416.43 L 294.03 416.12 L 293.53 415.74 L 293.15 415.30 L 292.71 414.91 L 292.27 414.42 L 291.85 414.03 L 291.38 413.53 L 290.90 413.12 L 290.50 412.67 L 290.01 412.23 L 289.62 411.87 L 289.13 411.50 L 288.74 411.18 L 288.28 410.88 L 287.85 410.64 L 287.34 410.43 L 286.96 410.28 L 286.56 410.21 L 286.07 410.16 L 285.67 410.27 L 285.18 410.29 L 284.78 410.45 L 284.29 410.65 L 283.80 410.86 L 283.40 411.19 L 282.90 411.59 L 282.50 411.88 L 282.07 412.29 L 281.60 412.68 L 281.21 413.18 L 280.70 413.55 L 280.32 413.96 L 279.81 414.44 L 279.35 414.90 L 278.91 415.32 L 278.49 415.69 L 278.01 416.15 L 277.51 416.47 L 277.11 416.88" fill="none" stroke="black" stroke-width="1"/>
  <path d="M 283.81 414.36 L 288.24 414.35" fill="none" stroke="black" stroke-width="1"/>
  <path d="M 287.15 416.87 L 286.04 417.98 L 284.93 416.87 L 286.04 415.77 L 287.15 416.87" fill="none" stroke="black" stroke-width="1"/>
  <path d="M 290.42 418.59 L 286.03 419.85" fill="none" stroke="black" stroke-width="1"/>
  <path d="M 286.20 419.71 L 281.81 418.74" fill="none" stroke="black" stroke-width="1"/>
  <path d="M 282.71 421.31 L 281.60 420.20 L 280.49 421.31 L 281.60 422.42 L 282.71 421.31" fill="none" stroke="black" stroke-width="1"/>
  <path d="M 266.06 430.18 L 267.19 430.43 L 268.27 430.66 L 269.38 430.93 L 270.49 431.20 L 271.58 431.50 L 272.71 431.77 L 273.77 432.02 L 274.92 432.36 L 275.97 432.58 L 277.14 432.92 L 278.20 433.13 L 279.35 433.45 L 280.52 433.68 L 281.57 433.90 L 282.73 434.01 L 283.79 434.25 L 284.91 434.43 L 286.01 434.48 L 287.08 434.52 L 288.22 434.56 L 289.35 434.47 L 290.44 434.48 L 291.55 434.32 L 292.66 434.24 L 293.74 434.03 L 294.88 433.88 L 295.97 433.66 L 297.10 433.42 L 298.22 433.16 L 299.32 432.89 L 300.46 432.63 L 301.54 432.32 L 302.62 432.02 L 303.76 431.73 L 304.90 431.42 L 305.98 431.15 L 307.04 430.93 L 308.21 430.60 L 309.36 430.31 L 310.43 430.12" fill="none" stroke="black" stroke-width="1"/>
  <path d="M 308.24 430.22 L 307.13 430.61 L 306.02 430.93 L 304.90 431.34 L 303.78 431.73 L 302.63 432.19 L 301.53 432.56 L 300.47 432.96 L 299.28 433.41 L 298.14 433.83 L 297.04 434.24 L 295.92 434.58 L 294.81 435.01 L 293.65 435.32 L 292.59 435.70 L 291.55 435.94 L 290.40 436.26 L 289.28 436.51 L 288.23 436.66 L 287.11 436.72 L 286.10 436.87 L 285.11 436.88 L 284.01 436.88 L 282.95 436.72 L 281.96 436.69 L 281.00 436.47 L 279.93 436.35 L 278.98 436.11 L 277.93 435.88 L 276.91 435.56 L 275.94 435.33 L 274.94 435.03 L 273.96 434.72 L 272.99 434.44 L 271.99 434.08 L 271.04 433.78 L 270.02 433.46 L 268.99 433.21 L 268.04 432.89 L 267.05 432.60 L 266.04 432.39" fill="none" stroke="black" stroke-width="1"/>
  <path d="M 261.70 434.62 L 262.86 434.98 L 264.12 435.35 L 265.32 435.74 L 266.53 436.19 L 267.72 436.68 L 268.93 437.08 L 270.12 437.53 L 271.33 438.00 L 272.47 438.47 L 273.74 438.88 L 275.00 439.22 L 276.15 439.69 L 277.33 440.01 L 278.58 440.37 L 279.82 440.67 L 281.04 440.88 L 282.25 440.99 L 283.53 441.18 L 284.82 441.25 L 286.05 441.21 L 287.39 441.10 L 288.62 440.95 L 289.91 440.75 L 291.22 440.43 L 292.57 440.05 L 293.86 439.69 L 295.25 439.27 L 296.52 438.79 L 297.89 438.31 L 299.19 437.75 L 300.57 437.22 L 301.88 436.64 L 303.22 436.12 L 304.57 435.51 L 305.89 434.90 L 307.27 434.38 L 308.64 433.79 L 309.95 433.32 L 311.23 432.88 L 312.61 432.36" fill="none" stroke="black" stroke-width="1"/>
  <path d="M 317.08 436.76 L 315.46 437.42 L 313.96 437.97 L 312.36 438.61 L 310.83 439.31 L 309.24 439.98 L 307.69 440.74 L 306.06 441.51 L 304.55 442.19 L 302.95 442.88 L 301.41 443.59 L 299.88 444.29 L 298.29 444.90 L 296.75 445.47 L 295.18 446.05 L 293.69 446.57 L 292.09 446.97 L 290.50 447.33 L 289.04 447.61 L 287.52 447.79 L 286.03 447.92 L 284.56 447.85 L 283.05 447.84 L 281.60 447.64 L 280.12 447.42 L 278.68 447.06 L 277.22 446.71 L 275.81 446.26 L 274.34 445.79 L 272.87 445.27 L 271.48 444.71 L 270.09 444.06 L 268.63 443.52 L 267.18 442.88 L 265.78 442.30 L 264.32 441.65 L 262.93 441.09 L 261.52 440.56 L 260.08 439.97 L 258.64 439.45 L 257.21 438.99" fill="none" stroke="black" stroke-width="1"/>
  <path d="M 270.51 463.39 L 265.86 463.29" fill="none" stroke="black" stroke-width="1"/>
  <path d="M 259.61 478.31 L 255.29 479.41" fill="none" stroke="black" stroke-width="1"/>
  <path d="M 276.91 474.61 L 281.44 474.17" fill="none" stroke="black" stroke-width="1"/>
  <path d="M 288.24 459.47 L 292.86 458.97" fill="none" stroke="black" stroke-width="1"/>
  <path d="M 294.90 467.84 L 290.44 467.79 L 286.06 467.89 L 281.61 467.80 L 277.22 467.81 L 272.76 467.91 L 268.24 467.90 L 263.92 467.83 L 259.37 467.84 L 254.95 467.87 L 250.50 467.81 L 246.12 467.81 L 241.75 467.92 L 237.32 467.81 L 232.85 467.84 L 228.43 467.81 L 223.99 467.86 L 219.53 467.84 L 215.11 467.92 L 210.64 467.89 L 206.19 467.91 L 201.75 467.83 L 197.36 467.88" fill="none" stroke="black" stroke-width="1"/>
  <path d="M 210.92 475.42 L 215.02 473.77" fill="none" stroke="black" stroke-width="1"/>
  <path d="M 221.82 463.51 L 226.28 463.06" fill="none" stroke="black" stroke-width="1"/>
  <path d="M 203.62 458.28 L 199.84 460.04" fill="none" stroke="black" stroke-width="1"/>
  <path d="M 179.63 458.90 L 178.97 459.15 L 178.63 459.71 L 177.96 460.04 L 177.28 460.34 L 176.99 460.75 L 176.24 461.19 L 175.72 461.47 L 175.00 461.98 L 174.51 462.36 L 174.00 462.60 L 173.28 463.11 L 172.79 463.53 L 172.29 463.98 L 171.72 464.45 L 171.10 464.67 L 170.51 465.04 L 169.86 465.53 L 169.47 465.79 L 168.88 466.07 L 168.54 466.56 L 167.92 466.86 L 167.32 467.17 L 166.96 467.61 L 166.48 467.88 L 166.12 468.15 L 165.54 468.50 L 165.17 468.83 L 164.87 469.00 L 164.42 469.40 L 163.96 469.72 L 163.66 470.15 L 163.28 470.45 L 162.83 470.57 L 162.33 470.94 L 162.06 470.99 L 161.77 471.39 L 161.38 471.65 L 161.10 471.96 L 160.73 472.19 L 160.26 472.58 L 160.03 472.85 L 159.70 472.99 L 159.27 473.11 L 159.16 473.46 L 158.66 473.79 L 158.14 473.94 L 158.03 474.41 L 157.58 474.62" fill="none" stroke="black" stroke-width="1"/>
  <path d="M 162.34 475.93 L 165.67 473.05" fill="none" stroke="black" stroke-width="1"/>
  <path d="M 161.76 485.64 L 162.22 485.34 L 162.62 485.34 L 162.87 485.12 L 163.19 485.11 L 163.59 484.75 L 163.94 484.62 L 164.34 484.30 L 164.63 484.27 L 165.00 484.13 L 165.53 484.07 L 165.68 483.89 L 166.07 483.64 L 166.40 483.64 L 166.73 483.24 L 167.17 483.12 L 167.39 483.12 L 167.90 482.67 L 168.32 482.58 L 168.72 482.48 L 169.19 482.13 L 169.56 481.99 L 169.89 481.80 L 170.55 481.62 L 170.90 481.33 L 171.47 481.19 L 171.70 481.02 L 172.36 480.61 L 172.77 480.21 L 173.41 480.11 L 173.92 479.83 L 174.52 479.55 L 175.06 479.19 L 175.57 479.00 L 176.06 478.77 L 176.70 478.59 L 177.27 478.14 L 177.98 477.96 L 178.41 477.50 L 179.01 477.26 L 179.65 476.84 L 180.10 476.56 L 180.75 476.38 L 181.40 476.15 L 181.90 475.76 L 182.48 475.50 L 183.03 475.05 L 183.73 474.90 L 184.16 474.65" fill="none" stroke="black" stroke-width="1"/>
  <path d="M 177.15 484.45 L 173.55 486.76" fill="none" stroke="black" stroke-width="1"/>
  <path d="M 170.40 495.57 L 166.64 497.93" fill="none" stroke="black" stroke-width="1"/>
  <path d="M 175.17 507.80 L 176.49 508.13 L 177.84 508.36 L 179.19 508.73 L 180.50 509.10 L 181.81 509.48 L 183.17 509.94 L 184.55 510.42 L 185.83 510.81 L 187.17 511.23 L 188.49 511.63 L 189.83 511.95 L 191.16 512.31 L 192.45 512.54 L 193.82 512.79 L 195.09 512.86 L 196.48 512.97 L 197.88 512.91 L 199.15 512.79 L 200.45 512.42 L 201.81 512.15 L 203.10 511.53 L 204.46 511.01 L 205.74 510.27 L 207.12 509.43 L 208.47 508.47 L 209.78 507.47 L 211.16 506.41 L 212.43 505.23 L 213.80 504.06 L 215.08 502.77 L 216.41 501.50 L 217.74 500.18 L 219.09 498.83 L 220.39 497.54 L 221.67 496.27 L 223.04 494.92 L 224.30 493.69 L 225.70 492.41 L 226.96 491.29 L 228.35 490.09" fill="none" stroke="black" stroke-width="1"/>
  <path d="M 233.36 482.33 L 236.85 479.54" fill="none" stroke="black" stroke-width="1"/>
  <path d="M 235.07 481.19 L 233.88 482.25 L 232.63 483.28 L 231.40 484.48 L 230.21 485.55 L 228.96 486.70 L 227.80 487.91 L 226.57 489.07 L 225.39 490.30 L 224.21 491.45 L 222.97 492.64 L 221.71 493.69 L 220.55 494.86 L 219.27 495.92 L 218.10 496.89 L 216.88 497.78 L 215.64 498.64 L 214.41 499.35 L 213.14 500.06 L 211.81 500.55 L 210.61 501.07 L 209.35 501.33 L 208.03 501.61 L 206.70 501.65 L 205.42 501.74 L 204.08 501.61 L 202.79 501.53 L 201.48 501.28 L 200.12 501.06 L 198.84 500.66 L 197.44 500.39 L 196.11 499.94 L 194.75 499.60 L 193.36 499.13 L 192.06 498.76 L 190.72 498.29 L 189.37 497.94 L 187.98 497.59 L 186.68 497.22 L 185.35 496.92 L 184.01 496.67" fill="none" stroke="black" stroke-width="1"/>
  <path d="M 188.63 512.08 L 192.79 512.38" fill="none" stroke="black" stroke-width="1"/>
  <path d="M 190.69 525.52 L 192.09 525.82 L 193.58 526.06 L 195.05 526.39 L 196.48 526.76 L 197.88 527.10 L 199.40 527.55 L 200.85 527.92 L 202.32 528.35 L 203.78 528.74 L 205.23 529.12 L 206.70 529.50 L 208.13 529.77 L 209.59 529.95 L 211.02 530.24 L 212.45 530.39 L 213.88 530.47 L 215.27 530.49 L 216.71 530.39 L 218.12 530.12 L 219.50 529.94 L 220.93 529.55 L 222.26 529.06 L 223.63 528.37 L 224.97 527.80 L 226.29 527.01 L 227.66 526.23 L 228.96 525.36 L 230.32 524.42 L 231.58 523.46 L 232.96 522.43 L 234.32 521.38 L 235.60 520.32 L 236.89 519.30 L 238.23 518.18 L 239.59 517.10 L 240.86 516.05 L 242.20 514.98 L 243.50 514.02 L 244.79 513.04 L 246.15 512.14" fill="none" stroke="black" stroke-width="1"/>
  <path d="M 247.85 517.78 L 244.27 519.82" fill="none" stroke="black" stroke-width="1"/>
  <path d="M 235.03 518.88 L 233.63 519.97 L 232.15 520.99 L 230.69 522.20 L 229.25 523.27 L 227.85 524.42 L 226.34 525.65 L 224.86 526.90 L 223.43 528.05 L 221.92 529.17 L 220.52 530.40 L 219.11 531.53 L 217.63 532.63 L 216.21 533.60 L 214.75 534.66 L 213.34 535.54 L 211.89 536.43 L 210.55 537.17 L 209.07 537.85 L 207.63 538.31 L 206.28 538.86 L 204.85 539.18 L 203.52 539.40 L 202.10 539.41 L 200.81 539.53 L 199.48 539.43 L 198.12 539.32 L 196.86 539.02 L 195.46 538.83 L 194.14 538.50 L 192.81 538.16 L 191.49 537.75 L 190.17 537.36 L 188.86 536.93 L 187.54 536.51 L 186.25 536.03 L 184.90 535.68 L 183.56 535.26 L 182.26 534.95 L 180.91 534.72 L 179.60 534.40" fill="none" stroke="black" stroke-width="1"/>
  <path d="M 136.78 572.83 L 133.30 575.38" fill="none" stroke="black" stroke-width="1"/>
  <path d="M 92.65 561.82 L 89.15 564.21" fill="none" stroke="black" stroke-width="1"/>
  <path d="M 168.53 518.81 L 169.74 519.02 L 170.95 519.37 L 172.19 519.79 L 173.36 520.09 L 174.56 520.48 L 175.76 520.92 L 176.96 521.39 L 178.16 521.77 L 179.35 522.15 L 180.56 522.57 L 181.81 522.89 L 182.97 523.25 L 184.21 523.50 L 185.41 523.73 L 186.62 523.80 L 187.86 523.95 L 189.15 523.84 L 190.35 523.82 L 191.68 523.50 L 192.88 523.28 L 194.15 522.81 L 195.45 522.28 L 196.76 521.61 L 198.05 520.86 L 199.39 520.01 L 200.69 519.11 L 201.96 518.03 L 203.36 517.08 L 204.70 515.96 L 206.04 514.86 L 207.45 513.63 L 208.73 512.52 L 210.15 511.26 L 211.43 510.13 L 212.75 508.96 L 214.13 507.76 L 215.44 506.59 L 216.82 505.49 L 218.10 504.41 L 219.49 503.39" fill="none" stroke="black" stroke-width="1"/>
  <path d="M 232.95 530.67 L 237.31 528.93" fill="none" stroke="black" stroke-width="1"/>
  <path d="M 255.43 535.60 L 259.25 533.25" fill="none" stroke="black" stroke-width="1"/>
  <path d="M 263.87 525.45 L 262.25 526.62 L 260.76 527.81 L 259.23 529.10 L 257.65 530.36 L 256.11 531.66 L 254.54 533.03 L 253.03 534.38 L 251.43 535.73 L 249.82 537.05 L 248.32 538.37 L 246.74 539.59 L 245.21 540.86 L 243.65 541.95 L 242.10 543.13 L 240.51 544.15 L 238.99 545.07 L 237.43 545.91 L 235.88 546.61 L 234.38 547.11 L 232.78 547.66 L 231.26 547.92 L 229.68 548.17 L 228.08 548.23 L 226.58 548.17 L 225.08 548.03 L 223.48 547.78 L 222.00 547.42 L 220.39 547.06 L 218.90 546.57 L 217.29 546.12 L 215.78 545.58 L 214.20 545.03 L 212.71 544.49 L 211.10 543.88 L 209.59 543.39 L 208.01 542.76 L 206.41 542.30 L 204.92 541.76 L 203.34 541.39 L 201.82 540.96" fill="none" stroke="black" stroke-width="1"/>
  <path d="M 212.92 547.72 L 214.55 548.24 L 216.24 548.74 L 217.85 549.31 L 219.56 549.99 L 221.20 550.63 L 222.88 551.35 L 224.60 552.06 L 226.19 552.75 L 227.79 553.43 L 229.51 554.09 L 231.22 554.69 L 232.83 555.27 L 234.43 555.79 L 236.15 556.21 L 237.82 556.45 L 239.47 556.80 L 241.08 556.93 L 242.79 556.95 L 244.41 556.76 L 246.11 556.58 L 247.78 556.15 L 249.44 555.62 L 251.08 554.86 L 252.76 554.13 L 254.39 553.18 L 256.09 552.20 L 257.79 551.03 L 259.42 549.93 L 261.08 548.74 L 262.75 547.42 L 264.43 546.07 L 266.08 544.74 L 267.80 543.43 L 269.41 542.01 L 271.05 540.66 L 272.74 539.31 L 274.38 538.02 L 276.07 536.73 L 277.76 535.50 L 279.40 534.36" fill="none" stroke="black" stroke-width="1"/>
  <path d="M 268.33 541.03 L 270.41 541.12 L 272.37 541.18 L 274.42 541.42 L 276.50 541.57 L 278.60 541.76 L 280.69 542.09 L 282.80 542.42 L 284.89 542.64 L 287.03 542.88 L 289.06 543.13 L 291.08 543.31 L 293.16 543.45 L 295.13 543.45 L 297.17 543.50 L 299.14 543.33 L 301.02 543.19 L 302.83 542.81 L 304.70 542.41 L 306.37 541.76 L 308.15 541.06 L 309.73 540.03 L 311.35 539.08 L 312.86 537.88 L 314.33 536.54 L 315.77 534.99 L 317.12 533.53 L 318.51 531.83 L 319.78 530.15 L 321.03 528.34 L 322.32 526.51 L 323.59 524.56 L 324.80 522.70 L 326.03 520.74 L 327.26 518.83 L 328.48 516.93 L 329.73 514.98 L 330.96 513.19 L 332.25 511.27 L 333.51 509.49 L 334.86 507.80" fill="none" stroke="black" stroke-width="1"/>
  <path d="M 328.61 491.56 L 331.85 488.68" fill="none" stroke="black" stroke-width="1"/>
  <path d="M 316.90 485.45 L 317.49 484.91 L 318.17 484.72 L 318.62 484.38 L 319.21 483.98 L 319.86 483.56 L 320.44 483.36 L 321.19 483.19 L 321.66 482.81 L 322.28 482.36 L 322.89 482.06 L 323.55 481.70 L 324.11 481.35 L 324.81 481.16 L 325.33 480.79 L 325.87 480.31 L 326.59 479.78 L 327.12 479.48 L 327.51 479.20 L 327.93 478.80 L 328.45 478.28 L 328.98 478.01 L 329.44 477.75 L 329.85 477.26 L 330.23 476.70 L 330.67 476.30 L 330.78 475.76 L 331.22 475.26 L 331.57 474.66 L 331.76 474.34 L 331.99 473.71 L 332.16 473.18 L 332.52 472.52 L 332.59 472.07 L 332.83 471.63 L 332.96 470.86 L 333.06 470.37 L 333.27 469.79 L 333.34 469.09 L 333.47 468.63 L 333.60 467.99 L 333.88 467.37 L 333.87 466.89 L 334.01 466.23 L 334.29 465.74 L 334.30 465.16 L 334.62 464.74 L 334.58 464.11 L 334.81 463.47" fill="none" stroke="black" stroke-width="1"/>
  <path d="M 339.23 463.41 L 339.56 465.06 L 340.00 466.76 L 340.50 468.46 L 340.93 470.13 L 341.45 471.86 L 341.95 473.53 L 342.41 475.25 L 342.98 476.92 L 343.46 478.65 L 343.98 480.31 L 344.47 481.93 L 344.86 483.68 L 345.17 485.29 L 345.56 487.01 L 345.78 488.68 L 346.02 490.29 L 346.06 491.94 L 346.17 493.51 L 346.01 495.09 L 345.94 496.66 L 345.66 498.15 L 345.28 499.72 L 344.70 501.22 L 344.24 502.70 L 343.58 504.14 L 342.90 505.62 L 342.10 507.06 L 341.31 508.50 L 340.48 509.97 L 339.53 511.34 L 338.57 512.73 L 337.65 514.15 L 336.72 515.62 L 335.73 516.96 L 334.73 518.38 L 333.82 519.77 L 332.85 521.16 L 332.01 522.60 L 331.20 524.07 L 330.35 525.46" fill="none" stroke="black" stroke-width="1"/>
  <path d="M 330.39 525.44 L 329.54 526.82 L 328.66 528.18 L 327.77 529.53 L 326.99 531.00 L 326.12 532.41 L 325.35 533.88 L 324.58 535.27 L 323.72 536.77 L 322.92 538.18 L 322.08 539.64 L 321.18 541.07 L 320.39 542.44 L 319.45 543.74 L 318.62 545.13 L 317.71 546.40 L 316.77 547.68 L 315.82 548.91 L 314.79 550.03 L 313.71 551.04 L 312.65 552.16 L 311.49 553.09 L 310.41 554.13 L 309.28 555.01 L 308.12 556.02 L 306.93 556.88 L 305.75 557.82 L 304.55 558.59 L 303.30 559.49 L 302.07 560.21 L 300.75 561.01 L 299.36 561.72 L 298.09 562.35 L 296.70 562.91 L 295.31 563.48 L 293.85 563.88 L 292.39 564.39 L 290.90 564.77 L 289.32 565.04 L 287.70 565.26 L 286.08 565.41 L 284.35 565.48 L 282.62 565.42 L 280.78 565.29 L 278.94 565.06 L 277.04 564.74 L 275.07 564.39 L 273.11 563.95 L 271.05 563.47 L 268.94 562.89 L 266.93 562.38 L 264.89 561.81 L 262.74 561.18 L 260.65 560.53 L 258.52 559.93 L 256.36 559.32 L 254.32 558.71 L 252.31 558.10 L 250.17 557.57 L 248.20 557.06 L 246.11 556.59" fill="none" stroke="black" stroke-width="1"/>
  <path d="M 246.13 556.59 L 243.70 556.98 L 241.17 557.35 L 238.65 557.82 L 236.06 558.26 L 233.49 558.73 L 230.87 559.27 L 228.28 559.78 L 225.66 560.29 L 223.01 560.76 L 220.49 561.28 L 217.91 561.64 L 215.42 562.15 L 212.98 562.51 L 210.51 562.84 L 208.21 563.11 L 205.82 563.29 L 203.65 563.35 L 201.41 563.43 L 199.31 563.31 L 197.34 563.20 L 195.42 562.93 L 193.55 562.61 L 191.77 562.19 L 189.94 561.73 L 188.24 561.21 L 186.53 560.60 L 184.89 559.97 L 183.31 559.24 L 181.80 558.41 L 180.30 557.67 L 178.84 556.78 L 177.49 555.93 L 176.25 555.03 L 174.91 554.04 L 173.72 552.96 L 172.55 552.02 L 171.51 550.95 L 170.42 549.90 L 169.50 548.82 L 168.53 547.71 L 167.74 546.52 L 166.97 545.37 L 166.39 544.05 L 165.79 542.80 L 165.29 541.45 L 164.92 540.04 L 164.54 538.59 L 164.29 537.14 L 164.06 535.66 L 163.84 534.13 L 163.63 532.62 L 163.50 531.05 L 163.32 529.45 L 163.21 527.95 L 163.01 526.39 L 162.89 524.86 L 162.73 523.39 L 162.48 521.82 L 162.20 520.29 L 161.92 518.88" fill="none" stroke="black" stroke-width="1"/>
  <path d="M 161.91 518.91 L 161.07 517.46 L 160.27 516.07 L 159.31 514.64 L 158.46 513.29 L 157.54 511.94 L 156.57 510.54 L 155.55 509.24 L 154.66 507.81 L 153.79 506.46 L 152.79 505.05 L 151.97 503.67 L 151.03 502.25 L 150.26 500.84 L 149.45 499.38 L 148.84 497.86 L 148.11 496.42 L 147.55 494.84 L 147.08 493.33 L 146.70 491.68 L 146.43 490.08 L 146.25 488.41 L 146.19 486.67 L 146.22 484.95 L 146.33 483.11 L 146.54 481.25 L 146.78 479.43 L 147.09 477.54 L 147.47 475.65 L 147.95 473.68 L 148.34 471.79 L 148.87 469.88 L 149.31 467.90 L 149.81 465.92 L 150.33 463.98 L 150.86 462.04 L 151.33 460.08 L 151.79 458.12 L 152.24 456.21 L 152.64 454.35 L 153.00 452.40" fill="none" stroke="black" stroke-width="1"/>
  <path d="M 174.44 454.36 L 175.85 450.04" fill="none" stroke="black" stroke-width="1"/>
  <path d="M 179.63 443.66 L 180.00 438.91" fill="none" stroke="black" stroke-width="1"/>
  <path d="M 184.02 436.81 L 185.12 437.30 L 186.21 437.78 L 187.31 438.32 L 188.35 438.87 L 189.44 439.40 L 190.47 440.04 L 191.49 440.66 L 192.58 441.22 L 193.67 441.83 L 194.70 442.37 L 195.72 442.95 L 196.85 443.43 L 198.02 443.87 L 199.06 444.35 L 200.23 444.65 L 201.35 445.07 L 202.50 445.28 L 203.72 445.54 L 204.96 445.63 L 206.21 445.71 L 207.54 445.58 L 208.83 445.54 L 210.25 445.32 L 211.56 445.06 L 213.02 444.75 L 214.38 444.34 L 215.82 443.86 L 217.28 443.42 L 218.78 442.91 L 220.23 442.36 L 221.66 441.82 L 223.21 441.21 L 224.71 440.57 L 226.21 440.02 L 227.76 439.46 L 229.20 438.85 L 230.74 438.32 L 232.16 437.76 L 233.65 437.26 L 235.08 436.78" fill="none" stroke="black" stroke-width="1"/>
  <path d="M 230.58 432.43 L 229.58 432.81 L 228.59 433.15 L 227.66 433.49 L 226.62 433.96 L 225.70 434.35 L 224.66 434.82 L 223.64 435.20 L 222.70 435.70 L 221.68 436.12 L 220.74 436.55 L 219.80 436.90 L 218.76 437.33 L 217.75 437.63 L 216.77 438.01 L 215.74 438.24 L 214.76 438.55 L 213.75 438.73 L 212.71 438.89 L 211.64 438.90 L 210.63 439.02 L 209.57 438.90 L 208.50 438.89 L 207.40 438.78 L 206.34 438.54 L 205.22 438.27 L 204.15 438.01 L 203.06 437.67 L 201.93 437.33 L 200.81 436.96 L 199.70 436.54 L 198.61 436.11 L 197.46 435.69 L 196.31 435.26 L 195.21 434.81 L 194.08 434.43 L 192.96 433.95 L 191.78 433.53 L 190.72 433.13 L 189.58 432.78 L 188.50 432.41" fill="none" stroke="black" stroke-width="1"/>
  <path d="M 192.87 430.16 L 193.62 430.37 L 194.43 430.64 L 195.20 430.97 L 195.99 431.18 L 196.77 431.46 L 197.55 431.76 L 198.36 432.10 L 199.11 432.35 L 199.93 432.60 L 200.67 432.92 L 201.43 433.17 L 202.23 433.44 L 202.95 433.66 L 203.79 433.89 L 204.61 434.01 L 205.34 434.25 L 206.16 434.36 L 206.90 434.48 L 207.72 434.54 L 208.46 434.56 L 209.20 434.53 L 210.01 434.48 L 210.81 434.40 L 211.56 434.24 L 212.35 434.03 L 213.11 433.88 L 213.83 433.69 L 214.66 433.42 L 215.45 433.19 L 216.21 432.89 L 217.01 432.57 L 217.76 432.32 L 218.54 431.99 L 219.30 431.73 L 220.04 431.43 L 220.85 431.15 L 221.58 430.92 L 222.40 430.60 L 223.14 430.37 L 223.95 430.11" fill="none" stroke="black" stroke-width="1"/>
  <path d="M 230.67 427.97 L 229.83 428.18 L 228.89 428.46 L 227.98 428.70 L 227.11 429.01 L 226.27 429.31 L 225.33 429.60 L 224.38 429.92 L 223.55 430.19 L 222.63 430.47 L 221.77 430.77 L 220.93 431.03 L 219.99 431.30 L 219.13 431.50 L 218.21 431.76 L 217.32 431.90 L 216.43 432.12 L 215.49 432.19 L 214.65 432.35 L 213.79 432.37 L 212.87 432.44 L 211.92 432.42 L 211.10 432.35 L 210.24 432.27 L 209.32 432.11 L 208.38 432.00 L 207.55 431.75 L 206.72 431.51 L 205.77 431.29 L 204.92 430.99 L 204.00 430.75 L 203.09 430.41 L 202.22 430.17 L 201.36 429.85 L 200.45 429.58 L 199.57 429.32 L 198.68 428.99 L 197.82 428.70 L 196.90 428.44 L 195.99 428.22 L 195.13 427.95" fill="none" stroke="black" stroke-width="1"/>
  <path d="M 209.55 419.09 L 208.45 417.98 L 207.34 419.09 L 208.45 420.20 L 209.55 419.09" fill="none" stroke="black" stroke-width="1"/>
  <path d="M 213.99 414.66 L 212.88 413.55 L 211.77 414.66 L 212.88 415.77 L 213.99 414.66" fill="none" stroke="black" stroke-width="1"/>
  <path d="M 215.13 412.17 L 210.49 412.21" fill="none" stroke="black" stroke-width="1"/>
  <path d="M 208.57 416.36 L 212.85 417.71" fill="none" stroke="black" stroke-width="1"/>
  <path d="M 213.15 417.67 L 217.21 416.17" fill="none" stroke="black" stroke-width="1"/>
  <path d="M 221.68 414.71 L 221.19 414.37 L 220.81 413.98 L 220.41 413.61 L 219.93 413.16 L 219.56 412.75 L 219.06 412.28 L 218.59 411.78 L 218.19 411.39 L 217.71 410.96 L 217.31 410.52 L 216.87 410.09 L 216.44 409.72 L 216.06 409.43 L 215.56 409.03 L 215.19 408.77 L 214.68 408.49 L 214.25 408.38 L 213.80 408.13 L 213.42 408.08 L 212.92 408.01 L 212.42 408.02 L 212.04 408.13 L 211.63 408.36 L 211.15 408.48 L 210.68 408.82 L 210.27 409.03 L 209.87 409.35 L 209.38 409.71 L 208.98 410.11 L 208.49 410.51 L 208.06 410.89 L 207.59 411.37 L 207.20 411.84 L 206.70 412.26 L 206.27 412.67 L 205.81 413.14 L 205.36 413.51 L 204.92 413.96 L 204.47 414.29 L 204.03 414.69" fill="none" stroke="black" stroke-width="1"/>
  <path d="M 203.96 414.69 L 204.47 415.02 L 204.86 415.40 L 205.34 415.80 L 205.76 416.22 L 206.19 416.59 L 206.66 417.08 L 207.12 417.50 L 207.55 417.96 L 207.98 418.43 L 208.45 418.81 L 208.95 419.17 L 209.35 419.59 L 209.78 419.98 L 210.25 420.27 L 210.68 420.60 L 211.14 420.81 L 211.65 420.93 L 212.04 421.16 L 212.47 421.24 L 212.93 421.28 L 213.37 421.21 L 213.82 421.16 L 214.23 420.97 L 214.70 420.81 L 215.08 420.61 L 215.59 420.28 L 215.99 420.00 L 216.47 419.61 L 216.87 419.27 L 217.35 418.82 L 217.85 418.35 L 218.23 417.98 L 218.68 417.55 L 219.11 417.10 L 219.57 416.69 L 220.00 416.24 L 220.46 415.79 L 220.88 415.43 L 221.38 415.07 L 221.76 414.72" fill="none" stroke="black" stroke-width="1"/>
  <path d="M 232.77 414.67 L 231.59 414.34 L 230.54 413.94 L 229.39 413.50 L 228.29 413.12 L 227.20 412.65 L 226.02 412.25 L 224.87 411.83 L 223.74 411.36 L 222.66 410.91 L 221.48 410.50 L 220.34 410.06 L 219.23 409.70 L 218.16 409.36 L 217.02 409.02 L 215.92 408.81 L 214.85 408.47 L 213.86 408.30 L 212.75 408.12 L 211.71 408.07 L 210.72 407.99 L 209.75 408.01 L 208.76 408.11 L 207.81 408.33 L 206.88 408.46 L 206.01 408.76 L 205.06 409.00 L 204.11 409.37 L 203.29 409.68 L 202.45 410.12 L 201.55 410.47 L 200.75 410.97 L 199.83 411.33 L 199.04 411.76 L 198.12 412.21 L 197.31 412.62 L 196.41 413.08 L 195.52 413.43 L 194.68 413.90 L 193.83 414.29 L 192.92 414.62" fill="none" stroke="black" stroke-width="1"/>
  <path d="M 192.99 414.71 L 193.85 415.15 L 194.73 415.68 L 195.60 416.20 L 196.45 416.77 L 197.23 417.36 L 198.14 417.93 L 198.97 418.50 L 199.83 419.11 L 200.66 419.75 L 201.53 420.26 L 202.38 420.84 L 203.26 421.32 L 204.10 421.84 L 205.02 422.23 L 205.98 422.54 L 206.83 422.95 L 207.75 423.24 L 208.70 423.42 L 209.74 423.54 L 210.65 423.59 L 211.61 423.53 L 212.69 423.41 L 213.76 423.19 L 214.80 422.94 L 215.84 422.57 L 216.98 422.22 L 218.10 421.74 L 219.20 421.30 L 220.28 420.78 L 221.47 420.23 L 222.67 419.70 L 223.75 419.08 L 224.84 418.52 L 226.05 417.89 L 227.23 417.35 L 228.34 416.73 L 229.43 416.14 L 230.61 415.63 L 231.73 415.13 L 232.85 414.65" fill="none" stroke="black" stroke-width="1"/>
  <path d="M 246.15 419.07 L 246.14 417.80 L 246.13 416.42 L 246.09 415.09 L 246.09 413.79 L 246.11 412.53 L 246.05 411.17 L 246.01 409.86 L 246.00 408.55 L 246.05 407.28 L 245.96 405.93 L 246.00 404.64 L 245.93 403.29 L 245.87 401.93 L 245.92 400.64 L 245.88 399.25 L 245.94 397.96 L 245.95 396.54 L 245.98 395.25 L 246.06 393.91 L 246.07 392.50 L 246.11 391.15 L 246.20 389.71 L 246.22 388.25 L 246.37 386.88 L 246.50 385.49 L 246.58 384.01 L 246.67 382.52 L 246.81 381.13 L 246.92 379.62 L 247.06 378.22 L 247.18 376.72 L 247.32 375.30 L 247.50 373.81 L 247.58 372.38 L 247.76 370.86 L 247.85 369.46 L 248.00 368.02 L 248.10 366.55 L 248.22 365.05 L 248.34 363.66" fill="none" stroke="black" stroke-width="1"/>
  <path d="M 248.30 363.68 L 248.40 362.26 L 248.53 360.78 L 248.61 359.39 L 248.78 357.87 L 248.93 356.47 L 249.04 354.95 L 249.18 353.42 L 249.29 352.03 L 249.41 350.55 L 249.55 349.11 L 249.71 347.65 L 249.79 346.20 L 249.92 344.70 L 250.02 343.31 L 250.06 341.91 L 250.22 340.44 L 250.33 339.02 L 250.39 337.61 L 250.46 336.20 L 250.53 334.81 L 250.60 333.45 L 250.62 332.06 L 250.71 330.69 L 250.68 329.35 L 250.64 327.99 L 250.70 326.66 L 250.73 325.37 L 250.71 324.01 L 250.68 322.63 L 250.69 321.37 L 250.69 320.10 L 250.67 318.74 L 250.59 317.44 L 250.64 316.11 L 250.67 314.78 L 250.61 313.49 L 250.55 312.16 L 250.59 310.85 L 250.61 309.49 L 250.59 308.20" fill="none" stroke="black" stroke-width="1"/>
  <path d="M 263.82 266.12 L 262.89 266.31 L 262.05 266.62 L 261.15 266.85 L 260.28 267.20 L 259.38 267.46 L 258.51 267.82 L 257.56 268.12 L 256.74 268.46 L 255.86 268.82 L 254.97 269.07 L 254.08 269.40 L 253.20 269.63 L 252.37 269.81 L 251.44 270.09 L 250.54 270.23 L 249.67 270.44 L 248.73 270.58 L 247.90 270.62 L 247.07 270.61 L 246.13 270.62 L 245.21 270.54 L 244.36 270.40 L 243.48 270.15 L 242.59 269.99 L 241.74 269.74 L 240.83 269.43 L 239.92 269.02 L 239.06 268.74 L 238.17 268.38 L 237.29 267.96 L 236.38 267.60 L 235.52 267.13 L 234.68 266.69 L 233.75 266.27 L 232.91 265.82 L 231.99 265.42 L 231.13 265.01 L 230.22 264.62 L 229.28 264.22 L 228.45 263.90" fill="none" stroke="black" stroke-width="1"/>
  <path d="M 246.09 259.47 L 244.92 259.76 L 243.86 259.99 L 242.69 260.25 L 241.60 260.61 L 240.47 261.00 L 239.32 261.30 L 238.18 261.59 L 237.04 262.00 L 235.97 262.31 L 234.77 262.68 L 233.67 263.03 L 232.52 263.27 L 231.38 263.49 L 230.30 263.74 L 229.17 263.88 L 228.13 264.04 L 227.09 264.08 L 226.02 264.12 L 224.99 264.00 L 223.99 263.94 L 222.97 263.66 L 222.03 263.46 L 221.08 263.06 L 220.15 262.72 L 219.19 262.21 L 218.33 261.76 L 217.46 261.23 L 216.55 260.63 L 215.63 259.95 L 214.81 259.38 L 213.90 258.71 L 213.09 258.05 L 212.22 257.37 L 211.38 256.68 L 210.50 256.03 L 209.66 255.34 L 208.82 254.70 L 207.93 254.05 L 207.06 253.44 L 206.17 252.88" fill="none" stroke="black" stroke-width="1"/>
  <path d="M 206.18 252.80 L 208.15 251.90 L 210.15 251.09 L 212.14 250.13 L 214.09 249.14 L 216.06 248.12 L 218.00 247.04 L 220.00 245.94 L 221.92 244.91 L 223.92 243.87 L 225.84 242.85 L 227.77 241.89 L 229.79 240.96 L 231.77 240.13 L 233.77 239.36 L 235.78 238.73 L 237.80 238.15 L 239.83 237.81 L 241.90 237.44 L 244.03 237.32 L 246.07 237.32 L 248.24 237.61 L 250.33 237.88 L 252.44 238.46 L 254.66 239.04 L 256.82 239.90 L 259.06 240.70 L 261.33 241.66 L 263.50 242.74 L 265.76 243.85 L 267.99 245.07 L 270.30 246.31 L 272.49 247.57 L 274.78 248.87 L 277.00 250.15 L 279.28 251.36 L 281.51 252.69 L 283.77 253.93 L 286.00 255.09 L 288.24 256.22 L 290.46 257.24" fill="none" stroke="black" stroke-width="1"/>
  <path d="M 290.49 257.27 L 289.34 257.75 L 288.28 258.23 L 287.23 258.80 L 286.06 259.30 L 284.95 259.83 L 283.85 260.44 L 282.75 261.06 L 281.63 261.59 L 280.57 262.11 L 279.42 262.70 L 278.33 263.27 L 277.20 263.74 L 276.08 264.21 L 274.99 264.66 L 273.95 265.02 L 272.77 265.40 L 271.69 265.71 L 270.56 265.93 L 269.39 266.02 L 268.34 266.19 L 267.30 266.11 L 266.12 266.15 L 265.07 265.96 L 263.91 265.85 L 262.75 265.59 L 261.69 265.33 L 260.61 264.94 L 259.47 264.64 L 258.42 264.29 L 257.26 263.83 L 256.13 263.37 L 255.04 262.93 L 253.98 262.52 L 252.82 262.01 L 251.75 261.59 L 250.60 261.10 L 249.51 260.62 L 248.39 260.25 L 247.25 259.86 L 246.17 259.52" fill="none" stroke="black" stroke-width="1"/>
  <path d="M 259.33 252.86 L 254.69 252.55" fill="none" stroke="black" stroke-width="1"/>
  <path d="M 243.84 244.22 L 248.25 244.04" fill="none" stroke="black" stroke-width="1"/>
  <path d="M 248.16 250.50 L 243.72 250.44" fill="none" stroke="black" stroke-width="1"/>
  <path d="M 237.34 252.47 L 233.00 252.98" fill="none" stroke="black" stroke-width="1"/>
  <path d="M 206.28 252.76 L 206.09 252.84 L 205.82 252.80 L 205.58 252.79 L 205.33 252.86 L 205.01 252.84 L 204.82 252.94 L 204.59 253.04 L 204.31 253.03 L 204.12 253.01 L 203.80 253.11 L 203.61 253.14 L 203.32 253.16 L 203.09 253.12 L 202.87 253.18 L 202.68 253.20 L 202.46 253.15 L 202.30 253.07 L 202.12 253.05 L 201.99 252.93 L 201.85 252.87 L 201.80 252.80 L 201.67 252.61 L 201.60 252.47 L 201.56 252.27 L 201.49 252.06 L 201.50 251.86 L 201.45 251.67 L 201.50 251.40 L 201.55 251.22 L 201.53 250.91 L 201.60 250.70 L 201.58 250.39 L 201.62 250.11 L 201.64 249.86 L 201.66 249.66 L 201.69 249.34 L 201.70 249.13 L 201.73 248.84 L 201.79 248.62 L 201.74 248.37" fill="none" stroke="black" stroke-width="1"/>
  <path d="M 219.51 246.22 L 220.81 245.96 L 222.15 245.72 L 223.44 245.46 L 224.76 245.14 L 226.08 244.77 L 227.35 244.52 L 228.62 244.19 L 229.94 243.89 L 231.26 243.56 L 232.54 243.28 L 233.85 243.03 L 235.16 242.73 L 236.42 242.44 L 237.81 242.26 L 239.21 242.11 L 240.51 241.92 L 241.84 241.89 L 243.28 241.74 L 244.69 241.80 L 246.12 241.74 L 247.63 241.83 L 249.04 241.96 L 250.52 242.18 L 252.04 242.36 L 253.61 242.67 L 255.10 242.93 L 256.59 243.22 L 258.21 243.61 L 259.76 243.98 L 261.36 244.39 L 262.95 244.77 L 264.53 245.22 L 266.18 245.68 L 267.70 246.07 L 269.33 246.44 L 270.87 246.91 L 272.39 247.26 L 274.03 247.71 L 275.60 248.08 L 277.15 248.42" fill="none" stroke="black" stroke-width="1"/>
  <path d="M 290.45 257.26 L 290.61 257.56 L 290.90 257.73 L 291.13 257.97 L 291.37 258.25 L 291.64 258.56 L 291.85 258.80 L 292.11 259.04 L 292.33 259.36 L 292.58 259.66 L 292.81 259.90 L 293.10 260.17 L 293.27 260.40 L 293.45 260.61 L 293.72 260.86 L 293.95 261.10 L 294.15 261.24 L 294.40 261.35 L 294.54 261.52 L 294.66 261.66 L 294.89 261.70 L 295.08 261.78 L 295.21 261.74 L 295.34 261.71 L 295.48 261.68 L 295.59 261.58 L 295.72 261.52 L 295.81 261.38 L 295.94 261.28 L 296.07 261.08 L 296.15 261.00 L 296.27 260.80 L 296.34 260.68 L 296.49 260.46 L 296.52 260.34 L 296.59 260.14 L 296.71 260.01 L 296.86 259.83 L 296.91 259.71 L 297.05 259.60 L 297.12 259.46" fill="none" stroke="black" stroke-width="1"/>
  <path d="M 292.72 235.35 L 288.28 235.03" fill="none" stroke="black" stroke-width="1"/>
  <path d="M 281.54 230.58 L 277.03 230.87" fill="none" stroke="black" stroke-width="1"/>
  <path d="M 270.78 223.78 L 266.07 224.06" fill="none" stroke="black" stroke-width="1"/>
  <path d="M 259.53 208.66 L 255.12 208.19" fill="none" stroke="black" stroke-width="1"/>
  <path d="M 244.01 201.94 L 248.60 201.85" fill="none" stroke="black" stroke-width="1"/>
  <path d="M 250.54 197.43 L 250.26 197.24 L 250.10 196.95 L 249.91 196.69 L 249.66 196.40 L 249.45 196.15 L 249.21 195.82 L 248.99 195.51 L 248.77 195.23 L 248.49 194.97 L 248.33 194.65 L 248.07 194.38 L 247.88 194.12 L 247.71 193.90 L 247.44 193.66 L 247.18 193.51 L 247.00 193.30 L 246.76 193.18 L 246.56 193.06 L 246.36 192.96 L 246.12 192.98 L 245.86 193.02 L 245.68 193.06 L 245.50 193.23 L 245.24 193.29 L 244.96 193.51 L 244.81 193.64 L 244.63 193.86 L 244.37 194.09 L 244.14 194.36 L 243.93 194.62 L 243.77 194.86 L 243.50 195.18 L 243.28 195.50 L 243.06 195.77 L 242.81 196.01 L 242.63 196.34 L 242.39 196.56 L 242.19 196.88 L 241.92 197.06 L 241.76 197.36" fill="none" stroke="black" stroke-width="1"/>
  <path d="M 232.84 209.18 L 237.17 207.88" fill="none" stroke="black" stroke-width="1"/>
  <path d="M 225.82 218.58 L 221.83 220.59" fill="none" stroke="black" stroke-width="1"/>
  <path d="M 214.73 222.79 L 211.10 225.10" fill="none" stroke="black" stroke-width="1"/>
  <path d="M 203.27 228.99 L 200.41 232.29" fill="none" stroke="black" stroke-width="1"/>
  <path d="M 212.86 197.40 L 212.10 197.87 L 211.26 198.27 L 210.46 198.69 L 209.61 199.11 L 208.78 199.47 L 207.91 199.93 L 207.02 200.32 L 206.21 200.75 L 205.39 201.21 L 204.53 201.58 L 203.74 201.94 L 202.89 202.43 L 202.08 202.86 L 201.32 203.32 L 200.54 203.76 L 199.85 204.25 L 199.12 204.77 L 198.51 205.24 L 197.94 205.78 L 197.32 206.31 L 196.82 206.85 L 196.29 207.47 L 195.92 208.03 L 195.42 208.70 L 195.02 209.38 L 194.68 209.99 L 194.41 210.65 L 194.03 211.32 L 193.79 212.03 L 193.46 212.70 L 193.13 213.40 L 192.93 214.09 L 192.61 214.80 L 192.41 215.50 L 192.10 216.14 L 191.89 216.90 L 191.55 217.63 L 191.33 218.28 L 191.08 219.00 L 190.71 219.63" fill="none" stroke="black" stroke-width="1"/>
  <path d="M 190.66 219.62 L 189.82 222.32 L 189.05 225.15 L 188.14 227.96 L 187.33 230.68 L 186.48 233.50 L 185.55 236.21 L 184.65 238.99 L 183.76 241.74 L 182.81 244.51 L 181.99 247.26 L 181.12 249.97 L 180.30 252.79 L 179.56 255.60 L 178.74 258.33 L 178.05 261.06 L 177.34 263.86 L 176.72 266.60 L 176.16 269.39 L 175.67 272.21 L 175.24 274.93 L 174.98 277.69 L 174.61 280.47 L 174.45 283.25 L 174.24 286.01 L 174.20 288.72 L 174.09 291.55 L 174.05 294.35 L 174.10 297.09 L 174.17 299.88 L 174.24 302.64 L 174.30 305.37 L 174.45 308.18 L 174.57 310.94 L 174.70 313.73 L 174.80 316.54 L 174.93 319.27 L 174.95 321.99 L 175.09 324.81 L 175.11 327.63 L 175.15 330.36" fill="none" stroke="black" stroke-width="1"/>
  <path d="M 175.18 330.40 L 174.97 334.34 L 174.66 338.22 L 174.33 342.23 L 174.02 346.12 L 173.62 350.11 L 173.31 354.05 L 172.94 358.07 L 172.58 362.01 L 172.17 366.02 L 171.89 369.93 L 171.60 373.94 L 171.29 377.81 L 171.05 381.75 L 170.82 385.59 L 170.65 389.36 L 170.55 393.25 L 170.51 397.03 L 170.53 400.75 L 170.68 404.38 L 170.80 408.06 L 171.10 411.60 L 171.41 415.16 L 171.91 418.61 L 172.32 422.06 L 172.88 425.49 L 173.47 428.81 L 174.18 432.10 L 174.82 435.44 L 175.55 438.71 L 176.31 441.97 L 177.11 445.26 L 177.88 448.45 L 178.75 451.65 L 179.49 454.90 L 180.30 458.19 L 181.09 461.37 L 181.89 464.66 L 182.61 467.88 L 183.26 471.13 L 184.01 474.47" fill="none" stroke="black" stroke-width="1"/>
  <path d="M 184.04 474.53 L 185.52 475.27 L 186.91 476.12 L 188.26 476.98 L 189.74 477.77 L 191.10 478.68 L 192.56 479.46 L 194.01 480.35 L 195.37 481.16 L 196.80 482.04 L 198.20 482.84 L 199.58 483.66 L 201.04 484.48 L 202.51 485.19 L 203.92 486.04 L 205.33 486.83 L 206.85 487.51 L 208.32 488.23 L 209.84 488.85 L 211.41 489.48 L 212.91 490.04 L 214.54 490.50 L 216.05 491.07 L 217.68 491.50 L 219.28 491.94 L 220.93 492.35 L 222.56 492.69 L 224.21 493.06 L 225.90 493.34 L 227.52 493.63 L 229.26 493.92 L 230.97 494.14 L 232.65 494.46 L 234.31 494.67 L 236.05 494.98 L 237.71 495.17 L 239.45 495.50 L 241.10 495.74 L 242.82 496.06 L 244.51 496.38 L 246.17 496.69" fill="none" stroke="black" stroke-width="1"/>
  <path d="M 246.20 496.66 L 248.20 496.53 L 250.24 496.28 L 252.30 496.17 L 254.38 496.00 L 256.49 495.94 L 258.57 495.77 L 260.71 495.63 L 262.77 495.55 L 264.89 495.46 L 266.95 495.30 L 269.01 495.14 L 271.06 494.99 L 273.08 494.82 L 275.06 494.57 L 277.02 494.29 L 278.92 494.01 L 280.71 493.61 L 282.59 493.26 L 284.27 492.81 L 286.04 492.27 L 287.68 491.66 L 289.23 491.04 L 290.68 490.37 L 292.20 489.58 L 293.54 488.74 L 294.98 487.93 L 296.35 487.01 L 297.62 486.13 L 298.86 485.22 L 300.15 484.22 L 301.43 483.19 L 302.62 482.25 L 303.79 481.25 L 305.05 480.25 L 306.31 479.21 L 307.50 478.27 L 308.80 477.29 L 310.01 476.33 L 311.27 475.42 L 312.60 474.50" fill="none" stroke="black" stroke-width="1"/>
  <path d="M 312.61 474.55 L 313.32 471.24 L 314.01 467.92 L 314.76 464.68 L 315.52 461.34 L 316.26 458.10 L 317.10 454.78 L 317.94 451.51 L 318.69 448.23 L 319.49 444.90 L 320.25 441.67 L 321.03 438.44 L 321.73 435.08 L 322.35 431.72 L 323.08 428.43 L 323.67 425.03 L 324.27 421.71 L 324.75 418.36 L 325.24 414.90 L 325.53 411.38 L 325.94 407.97 L 326.18 404.47 L 326.36 400.92 L 326.47 397.35 L 326.50 393.76 L 326.49 390.16 L 326.44 386.51 L 326.37 382.86 L 326.20 379.18 L 326.04 375.48 L 325.83 371.80 L 325.67 368.03 L 325.39 364.39 L 325.09 360.73 L 324.92 356.97 L 324.68 353.25 L 324.46 349.55 L 324.25 345.84 L 324.07 342.16 L 323.88 338.42 L 323.78 334.81" fill="none" stroke="black" stroke-width="1"/>
  <path d="M 323.72 334.80 L 323.56 332.00 L 323.54 329.26 L 323.46 326.50 L 323.44 323.71 L 323.43 320.91 L 323.38 318.17 L 323.41 315.35 L 323.33 312.63 L 323.25 309.90 L 323.27 307.09 L 323.18 304.30 L 323.14 301.55 L 323.07 298.82 L 322.93 296.01 L 322.82 293.22 L 322.60 290.47 L 322.34 287.73 L 322.12 284.93 L 321.75 282.18 L 321.45 279.39 L 320.96 276.66 L 320.57 273.86 L 320.10 271.08 L 319.50 268.32 L 318.96 265.52 L 318.28 262.79 L 317.58 260.05 L 316.95 257.25 L 316.24 254.52 L 315.52 251.72 L 314.80 248.94 L 314.04 246.19 L 313.29 243.37 L 312.54 240.66 L 311.77 237.94 L 311.05 235.12 L 310.30 232.32 L 309.60 229.59 L 308.96 226.86 L 308.23 224.06" fill="none" stroke="black" stroke-width="1"/>
  <path d="M 308.15 224.03 L 307.72 223.42 L 307.30 222.68 L 306.91 222.03 L 306.47 221.30 L 306.03 220.66 L 305.66 219.91 L 305.31 219.16 L 304.85 218.50 L 304.43 217.74 L 304.04 217.11 L 303.57 216.42 L 303.21 215.74 L 302.76 215.09 L 302.33 214.40 L 301.81 213.79 L 301.41 213.12 L 300.94 212.52 L 300.42 211.89 L 299.91 211.34 L 299.36 210.74 L 298.81 210.21 L 298.21 209.67 L 297.59 209.18 L 296.99 208.68 L 296.29 208.28 L 295.70 207.75 L 295.09 207.26 L 294.36 206.87 L 293.64 206.48 L 292.98 206.03 L 292.22 205.60 L 291.58 205.20 L 290.84 204.74 L 290.17 204.39 L 289.49 203.99 L 288.77 203.57 L 288.03 203.19 L 287.39 202.73 L 286.66 202.31 L 286.03 201.87" fill="none" stroke="black" stroke-width="1"/>
  <path d="M 259.25 180.13 L 255.00 179.25" fill="none" stroke="black" stroke-width="1"/>
  <path d="M 248.53 186.35 L 244.09 186.59" fill="none" stroke="black" stroke-width="1"/>
  <path d="M 232.94 180.40 L 237.31 179.35" fill="none" stroke="black" stroke-width="1"/>
  <path d="M 241.72 130.85 L 242.08 131.10 L 242.38 131.34 L 242.77 131.60 L 243.05 131.90 L 243.39 132.24 L 243.71 132.49 L 244.01 132.73 L 244.37 133.09 L 244.73 133.41 L 245.04 133.67 L 245.41 133.94 L 245.70 134.21 L 246.07 134.48 L 246.36 134.67 L 246.67 134.90 L 247.03 135.04 L 247.41 135.14 L 247.69 135.29 L 247.98 135.27 L 248.35 135.38 L 248.70 135.30 L 249.02 135.30 L 249.39 135.19 L 249.68 135.07 L 249.97 134.87 L 250.34 134.71 L 250.62 134.50 L 251.01 134.25 L 251.32 134.02 L 251.67 133.73 L 251.98 133.46 L 252.33 133.16 L 252.62 132.88 L 253.00 132.57 L 253.33 132.32 L 253.66 131.99 L 253.94 131.75 L 254.33 131.44 L 254.62 131.22 L 254.99 130.96" fill="none" stroke="black" stroke-width="1"/>
  <path d="M 259.50 104.25 L 255.69 103.31 L 251.85 102.38 L 248.06 101.43 L 244.25 100.45 L 240.35 99.56 L 236.58 98.61 L 232.78 97.64" fill="none" stroke="black" stroke-width="1"/>
  <path d="M 237.18 93.09 L 237.47 88.71" fill="none" stroke="black" stroke-width="1"/>
  <path d="M 230.68 82.17 L 234.60 82.98 L 238.40 83.80 L 242.23 84.60 L 246.12 85.50 L 249.96 86.33 L 253.86 87.15 L 257.72 87.95 L 261.63 88.77" fill="none" stroke="black" stroke-width="1"/>
  <path d="M 253.52 77.13 L 256.60 73.68" fill="none" stroke="black" stroke-width="1"/>
  <path d="M 228.44 64.39 L 232.31 65.20 L 236.25 65.92 L 240.23 66.57 L 244.14 67.39 L 248.14 68.10 L 252.01 68.79 L 255.98 69.58 L 259.83 70.30 L 263.81 71.06" fill="none" stroke="black" stroke-width="1"/>
  <path d="M 266.12 53.34 L 261.90 52.56 L 257.78 51.88 L 253.54 51.08 L 249.45 50.39 L 245.22 49.65 L 241.06 48.95 L 236.89 48.20 L 232.67 47.46 L 228.46 46.71" fill="none" stroke="black" stroke-width="1"/>
  <path d="M 237.88 54.82 L 241.45 51.86" fill="none" stroke="black" stroke-width="1"/>
  <path d="M 250.81 38.91 L 254.57 36.96" fill="none" stroke="black" stroke-width="1"/>
  <path d="M 246.19 20.11 L 246.23 24.52 L 246.16 29.01 L 246.13 33.36 L 246.17 37.81 L 246.17 42.27 L 246.11 46.69 L 246.11 51.07 L 246.10 55.56 L 246.15 59.99 L 246.17 64.44 L 246.11 68.79 L 246.17 73.27 L 246.11 77.70 L 246.19 82.19 L 246.13 86.51 L 246.12 90.95 L 246.17 95.45 L 246.14 99.88 L 246.17 104.27 L 246.09 108.75 L 246.11 113.14" fill="none" stroke="black" stroke-width="1"/>
  <path d="M 246.16 113.11 L 246.71 113.61 L 247.28 113.99 L 247.90 114.46 L 248.44 114.83 L 249.07 115.19 L 249.61 115.65 L 250.24 116.02 L 250.78 116.47 L 251.42 116.88 L 251.95 117.29 L 252.59 117.69 L 253.09 118.14 L 253.68 118.59 L 254.20 119.03 L 254.70 119.44 L 255.27 119.96 L 255.83 120.43 L 256.27 120.95 L 256.71 121.47 L 257.19 122.02 L 257.57 122.65 L 258.04 123.17 L 258.47 123.74 L 258.81 124.39 L 259.18 125.05 L 259.52 125.68 L 259.80 126.37 L 260.18 127.01 L 260.43 127.65 L 260.80 128.38 L 261.09 129.04 L 261.41 129.77 L 261.66 130.53 L 262.00 131.17 L 262.35 131.93 L 262.60 132.57 L 262.96 133.24 L 263.22 133.94 L 263.50 134.58 L 263.87 135.29" fill="none" stroke="black" stroke-width="1"/>
  <path d="M 263.86 135.30 L 263.60 135.87 L 263.46 136.43 L 263.35 136.96 L 263.12 137.59 L 262.91 138.20 L 262.82 138.77 L 262.71 139.34 L 262.53 139.96 L 262.37 140.52 L 262.21 141.14 L 262.07 141.72 L 261.86 142.29 L 261.67 142.91 L 261.43 143.41 L 261.13 143.94 L 260.90 144.48 L 260.62 144.97 L 260.26 145.48 L 259.91 145.88 L 259.46 146.41 L 258.96 146.85 L 258.49 147.26 L 257.98 147.69 L 257.37 148.02 L 256.77 148.40 L 256.13 148.73 L 255.41 149.09 L 254.79 149.39 L 254.10 149.74 L 253.37 150.01 L 252.68 150.37 L 251.92 150.61 L 251.21 150.91 L 250.45 151.19 L 249.71 151.56 L 248.98 151.79 L 248.21 152.15 L 247.55 152.40 L 246.89 152.72 L 246.19 153.04" fill="none" stroke="black" stroke-width="1"/>
  <path d="M 246.10 153.10 L 245.54 152.71 L 244.96 152.22 L 244.30 151.77 L 243.76 151.37 L 243.15 150.92 L 242.52 150.54 L 241.90 150.20 L 241.28 149.72 L 240.62 149.36 L 240.06 148.88 L 239.42 148.42 L 238.87 148.03 L 238.34 147.55 L 237.76 147.14 L 237.21 146.61 L 236.75 146.20 L 236.24 145.76 L 235.85 145.20 L 235.52 144.62 L 235.10 144.13 L 234.75 143.50 L 234.52 142.98 L 234.24 142.42 L 234.09 141.76 L 233.91 141.12 L 233.77 140.47 L 233.65 139.86 L 233.56 139.14 L 233.43 138.42 L 233.41 137.77 L 233.35 137.09 L 233.30 136.38 L 233.28 135.62 L 233.22 134.98 L 233.15 134.24 L 233.12 133.59 L 233.07 132.87 L 232.99 132.21 L 232.87 131.55 L 232.80 130.86" fill="none" stroke="black" stroke-width="1"/>
  <path d="M 232.79 130.84 L 232.96 130.31 L 233.22 129.71 L 233.43 129.11 L 233.61 128.55 L 233.75 127.95 L 233.99 127.37 L 234.17 126.78 L 234.36 126.19 L 234.57 125.63 L 234.74 125.01 L 234.97 124.40 L 235.15 123.86 L 235.34 123.32 L 235.59 122.74 L 235.83 122.16 L 236.07 121.68 L 236.39 121.14 L 236.62 120.68 L 236.89 120.19 L 237.25 119.75 L 237.59 119.38 L 237.95 118.91 L 238.34 118.47 L 238.74 118.15 L 239.21 117.81 L 239.58 117.46 L 239.97 117.11 L 240.47 116.81 L 241.00 116.55 L 241.40 116.20 L 241.88 115.85 L 242.35 115.61 L 242.82 115.39 L 243.31 115.04 L 243.73 114.76 L 244.26 114.45 L 244.73 114.21 L 245.19 113.85 L 245.59 113.56 L 246.10 113.22" fill="none" stroke="black" stroke-width="1"/>
  <path d="M 246.12 113.19 L 245.46 110.73 L 244.75 108.30 L 244.04 105.80 L 243.33 103.37 L 242.60 100.89 L 241.86 98.43 L 241.09 95.95 L 240.39 93.48 L 239.72 90.96 L 238.94 88.54 L 238.29 86.08 L 237.53 83.62 L 236.88 81.15 L 236.19 78.74 L 235.55 76.33 L 234.94 73.90 L 234.37 71.53 L 233.82 69.13 L 233.35 66.78 L 232.85 64.43 L 232.44 62.05 L 232.05 59.81 L 231.69 57.50 L 231.39 55.27 L 231.08 53.00 L 230.86 50.78 L 230.63 48.58 L 230.42 46.35 L 230.20 44.12 L 230.06 41.95 L 229.86 39.77 L 229.74 37.57 L 229.59 35.44 L 229.44 33.20 L 229.23 30.95 L 229.12 28.83 L 229.00 26.68 L 228.78 24.44 L 228.52 22.28 L 228.37 20.02" fill="none" stroke="black" stroke-width="1"/>
  <path d="M 228.42 28.91 L 232.39 29.62 L 236.41 30.26 L 240.41 30.94 L 244.39 31.54 L 248.41 32.24 L 252.39 32.88 L 256.34 33.65 L 260.36 34.30 L 264.37 34.95 L 268.36 35.62" fill="none" stroke="black" stroke-width="1"/>
  <path d="M 268.33 20.04 L 268.14 22.23 L 267.94 24.45 L 267.81 26.68 L 267.65 28.83 L 267.56 30.95 L 267.42 33.19 L 267.30 35.36 L 267.19 37.55 L 267.04 39.74 L 266.94 41.92 L 266.80 44.11 L 266.63 46.31 L 266.36 48.49 L 266.20 50.73 L 265.94 52.91 L 265.63 55.21 L 265.25 57.46 L 264.87 59.74 L 264.36 62.03 L 263.89 64.36 L 263.31 66.75 L 262.64 69.06 L 261.89 71.48 L 261.18 73.83 L 260.37 76.24 L 259.52 78.67 L 258.59 81.15 L 257.72 83.56 L 256.73 86.01 L 255.81 88.48 L 254.89 90.97 L 253.84 93.43 L 252.78 95.94 L 251.84 98.39 L 250.85 100.87 L 249.85 103.34 L 248.86 105.83 L 247.91 108.27 L 247.05 110.72 L 246.07 113.17" fill="none" stroke="black" stroke-width="1"/>
  <path d="M 200.94 111.10 L 202.79 106.99" fill="none" stroke="black" stroke-width="1"/>
  <path d="M 190.19 111.08 L 191.25 115.42" fill="none" stroke="black" stroke-width="1"/>
  <path d="M 179.37 124.02 L 180.01 128.49" fill="none" stroke="black" stroke-width="1"/>
  <path d="M 196.81 133.09 L 198.32 128.71" fill="none" stroke="black" stroke-width="1"/>
  <path d="M 191.00 150.77 L 190.68 155.25" fill="none" stroke="black" stroke-width="1"/>
  <path d="M 184.06 164.14 L 183.56 161.65 L 183.14 159.03 L 182.67 156.49 L 182.16 153.90 L 181.68 151.29 L 181.14 148.76 L 180.60 146.21 L 180.12 143.62 L 179.58 141.06 L 179.11 138.48 L 178.59 135.88 L 178.15 133.35 L 177.66 130.86 L 177.25 128.24 L 176.90 125.64 L 176.46 123.16 L 176.07 120.62 L 175.78 118.11 L 175.50 115.63 L 175.25 113.11 L 175.07 110.62 L 174.89 108.14 L 174.72 105.69 L 174.67 103.22 L 174.61 100.78 L 174.58 98.33 L 174.55 95.89 L 174.58 93.46 L 174.65 91.05 L 174.65 88.62 L 174.68 86.22 L 174.76 83.78 L 174.77 81.42 L 174.90 78.95 L 175.01 76.50 L 175.02 74.12 L 175.13 71.67 L 175.11 69.28 L 175.19 66.89 L 175.14 64.42" fill="none" stroke="black" stroke-width="1"/>
  <path d="M 190.75 20.00 L 190.81 21.96 L 190.96 24.01 L 190.99 26.03 L 191.15 28.04 L 191.20 30.05 L 191.33 32.08 L 191.45 34.04 L 191.51 36.12 L 191.67 38.16 L 191.70 40.15 L 191.79 42.19 L 191.90 44.18 L 191.97 46.19 L 192.11 48.18 L 192.21 50.15 L 192.35 52.16 L 192.53 54.18 L 192.63 56.11 L 192.72 58.03 L 192.94 60.01 L 193.18 62.00 L 193.29 63.88 L 193.53 65.74 L 193.68 67.70 L 193.89 69.59 L 194.10 71.49 L 194.31 73.32 L 194.55 75.25 L 194.75 77.09 L 195.02 78.99 L 195.29 80.85 L 195.50 82.73 L 195.80 84.58 L 195.98 86.46 L 196.16 88.37 L 196.46 90.19 L 196.74 92.06 L 196.93 93.93 L 197.17 95.83 L 197.38 97.68" fill="none" stroke="black" stroke-width="1"/>
  <path d="M 197.30 97.70 L 195.81 97.65 L 194.40 97.64 L 192.94 97.62 L 191.44 97.50 L 189.99 97.45 L 188.45 97.31 L 187.02 97.25 L 185.46 97.12 L 183.93 96.97 L 182.49 96.94 L 181.05 96.89 L 179.54 96.83 L 178.11 96.87 L 176.65 96.80 L 175.28 96.83 L 173.84 96.90 L 172.52 97.07 L 171.12 97.15 L 169.87 97.41 L 168.51 97.60 L 167.29 97.93 L 166.03 98.26 L 164.91 98.68 L 163.66 99.12 L 162.55 99.68 L 161.39 100.13 L 160.24 100.65 L 159.19 101.26 L 158.18 101.86 L 157.05 102.49 L 156.01 103.15 L 154.94 103.77 L 153.86 104.46 L 152.84 105.08 L 151.73 105.77 L 150.74 106.37 L 149.63 106.93 L 148.61 107.62 L 147.58 108.17 L 146.43 108.79" fill="none" stroke="black" stroke-width="1"/>
  <path d="M 146.35 108.68 L 147.77 110.35 L 149.20 112.06 L 150.62 113.74 L 151.99 115.53 L 153.33 117.26 L 154.74 119.03 L 156.06 120.82 L 157.49 122.55 L 158.81 124.29 L 160.25 126.05 L 161.64 127.80 L 163.06 129.49 L 164.51 131.13 L 165.93 132.84 L 167.36 134.52 L 168.90 136.07 L 170.42 137.58 L 172.00 139.14 L 173.67 140.58 L 175.24 142.02 L 177.00 143.34 L 178.65 144.69 L 180.38 145.94 L 182.21 147.16 L 184.10 148.32 L 185.89 149.47 L 187.74 150.59 L 189.67 151.67 L 191.53 152.72 L 193.52 153.77 L 195.42 154.81 L 197.41 155.81 L 199.32 156.84 L 201.32 157.84 L 203.26 158.91 L 205.22 159.87 L 207.17 160.89 L 209.08 161.95 L 211.04 163.07 L 212.89 164.11" fill="none" stroke="black" stroke-width="1"/>
  <path d="M 212.94 164.09 L 212.33 162.45 L 211.79 160.77 L 211.20 159.11 L 210.59 157.46 L 210.01 155.84 L 209.37 154.14 L 208.76 152.47 L 208.14 150.82 L 207.50 149.15 L 206.92 147.51 L 206.34 145.81 L 205.74 144.19 L 205.12 142.56 L 204.61 140.87 L 204.08 139.21 L 203.55 137.55 L 203.07 135.95 L 202.59 134.24 L 202.19 132.58 L 201.75 130.92 L 201.39 129.20 L 201.03 127.59 L 200.71 125.90 L 200.43 124.27 L 200.13 122.55 L 199.92 120.95 L 199.71 119.25 L 199.49 117.62 L 199.32 115.99 L 199.11 114.30 L 198.94 112.59 L 198.77 110.97 L 198.58 109.33 L 198.44 107.65 L 198.23 105.95 L 198.10 104.32 L 197.90 102.71 L 197.73 101.00 L 197.58 99.36 L 197.32 97.67" fill="none" stroke="black" stroke-width="1"/>
  <path d="M 197.32 97.63 L 195.11 99.38 L 192.88 101.01 L 190.68 102.77 L 188.41 104.46 L 186.20 106.21 L 183.91 107.97 L 181.64 109.77 L 179.42 111.48 L 177.22 113.29 L 174.93 114.97 L 172.74 116.70 L 170.47 118.40 L 168.29 120.10 L 166.04 121.75 L 163.87 123.34 L 161.65 124.97 L 159.43 126.54 L 157.33 128.04 L 155.17 129.50 L 153.08 130.91 L 150.96 132.24 L 148.91 133.58 L 146.80 134.78 L 144.81 136.06 L 142.74 137.28 L 140.77 138.37 L 138.79 139.44 L 136.78 140.57 L 134.87 141.66 L 132.83 142.68 L 130.85 143.71 L 128.89 144.73 L 126.90 145.73 L 124.97 146.76 L 122.94 147.72 L 121.04 148.80 L 119.02 149.83 L 117.09 150.89 L 115.08 151.95 L 113.11 153.05" fill="none" stroke="black" stroke-width="1"/>
  <path d="M 113.14 153.01 L 111.78 149.73 L 110.44 146.37 L 109.07 143.06 L 107.67 139.73 L 106.29 136.43 L 104.86 133.09 L 103.43 129.82 L 102.04 126.45 L 100.70 123.11 L 99.25 119.81 L 97.82 116.50 L 96.50 113.17 L 95.19 109.85 L 93.82 106.53 L 92.58 103.24 L 91.23 99.89 L 90.07 96.51 L 88.78 93.24 L 87.60 89.93 L 86.48 86.60 L 85.40 83.22 L 84.35 79.95 L 83.40 76.64 L 82.37 73.30 L 81.41 69.95 L 80.52 66.65 L 79.65 63.32 L 78.77 60.00 L 77.89 56.63 L 77.09 53.35 L 76.30 49.98 L 75.46 46.70 L 74.62 43.42 L 73.84 40.05 L 73.02 36.75 L 72.21 33.39 L 71.39 30.04 L 70.55 26.74 L 69.74 23.43 L 68.83 20.09" fill="none" stroke="black" stroke-width="1"/>
  <path d="M 91.30 66.79 L 90.36 62.23" fill="none" stroke="black" stroke-width="1"/>
  <path d="M 102.26 39.70 L 102.02 44.21" fill="none" stroke="black" stroke-width="1"/>
  <path d="M 138.83 44.37 L 140.28 39.82" fill="none" stroke="black" stroke-width="1"/>
  <path d="M 156.80 33.38 L 157.84 29.04" fill="none" stroke="black" stroke-width="1"/>
  <path d="M 146.83 51.07 L 145.76 55.51" fill="none" stroke="black" stroke-width="1"/>
  <path d="M 131.00 73.31 L 130.11 77.82" fill="none" stroke="black" stroke-width="1"/>
  <path d="M 135.44 84.10 L 134.75 88.71" fill="none" stroke="black" stroke-width="1"/>
  <path d="M 124.67 106.63 L 123.90 110.63" fill="none" stroke="black" stroke-width="1"/>
  <path d="M 113.07 153.07 L 110.65 152.57 L 108.16 152.06 L 105.69 151.61 L 103.18 151.21 L 100.67 150.78 L 98.18 150.45 L 95.66 150.10 L 93.16 149.71 L 90.68 149.39 L 88.16 148.93 L 85.69 148.50 L 83.20 148.04 L 80.82 147.48 L 78.32 146.96 L 75.90 146.32 L 73.53 145.65 L 71.24 144.86 L 68.87 144.02 L 66.67 143.00 L 64.35 142.01 L 62.13 140.73 L 60.00 139.59 L 57.89 138.15 L 55.81 136.78 L 53.83 135.22 L 51.73 133.66 L 49.78 131.98 L 47.75 130.30 L 45.84 128.51 L 43.85 126.76 L 41.98 124.93 L 39.98 123.11 L 38.09 121.29 L 36.14 119.42 L 34.20 117.64 L 32.28 115.74 L 30.32 113.96 L 28.39 112.16 L 26.45 110.41 L 24.44 108.73" fill="none" stroke="black" stroke-width="1"/>
  <path d="M 24.45 108.70 L 24.20 106.52 L 23.97 104.26 L 23.63 102.08 L 23.42 99.83 L 23.16 97.60 L 22.84 95.40 L 22.59 93.21 L 22.24 90.96 L 21.96 88.78 L 21.67 86.53 L 21.36 84.29 L 21.14 82.09 L 20.93 79.85 L 20.68 77.66 L 20.45 75.49 L 20.32 73.23 L 20.18 71.03 L 20.08 68.79 L 20.04 66.58 L 20.00 64.36 L 20.01 62.12 L 20.09 59.92 L 20.15 57.70 L 20.32 55.49 L 20.49 53.32 L 20.69 51.06 L 20.91 48.86 L 21.15 46.62 L 21.46 44.43 L 21.68 42.19 L 21.99 39.93 L 22.26 37.75 L 22.53 35.51 L 22.86 33.32 L 23.19 31.10 L 23.44 28.89 L 23.70 26.64 L 23.99 24.45 L 24.18 22.22 L 24.48 20.02" fill="none" stroke="black" stroke-width="1"/>
  <path d="M 42.59 28.96 L 42.29 33.38" fill="none" stroke="black" stroke-width="1"/>
  <path d="M 46.58 50.82 L 46.42 55.53" fill="none" stroke="black" stroke-width="1"/>
  <path d="M 57.52 73.21 L 58.01 77.78" fill="none" stroke="black" stroke-width="1"/>
  <path d="M 68.17 95.64 L 69.06 99.66" fill="none" stroke="black" stroke-width="1"/>
  <path d="M 78.94 117.84 L 80.58 121.84" fill="none" stroke="black" stroke-width="1"/>
  <path d="M 36.39 195.22 L 34.65 199.25" fill="none" stroke="black" stroke-width="1"/>
  <path d="M 58.90 240.04 L 56.42 243.48" fill="none" stroke="black" stroke-width="1"/>
  <path d="M 78.59 287.60 L 81.55 284.23" fill="none" stroke="black" stroke-width="1"/>
  <path d="M 48.05 328.70 L 44.78 331.98" fill="none" stroke="black" stroke-width="1"/>
  <path d="M 111.47 310.03 L 114.47 306.49" fill="none" stroke="black" stroke-width="1"/>
  <path d="M 122.98 210.27 L 125.39 206.61" fill="none" stroke="black" stroke-width="1"/>
  <path d="M 190.70 219.51 L 191.73 217.53 L 192.88 215.42 L 193.92 213.31 L 194.97 211.15 L 196.01 209.03 L 197.03 206.79 L 198.07 204.59 L 199.07 202.40 L 200.06 200.17 L 201.13 198.06 L 202.19 195.97 L 203.25 193.85 L 204.37 191.84 L 205.46 189.83 L 206.59 187.89 L 207.78 186.07 L 209.04 184.35 L 210.26 182.66 L 211.61 181.13 L 212.93 179.66 L 214.39 178.37 L 215.80 177.12 L 217.35 176.03 L 218.86 174.99 L 220.49 174.08 L 222.07 173.21 L 223.74 172.48 L 225.40 171.70 L 227.05 171.06 L 228.82 170.37 L 230.50 169.84 L 232.29 169.17 L 234.10 168.56 L 235.78 168.02 L 237.53 167.45 L 239.27 166.85 L 240.96 166.22 L 242.71 165.57 L 244.38 164.82 L 246.07 164.13" fill="none" stroke="black" stroke-width="1"/>
  <path d="M 246.13 164.13 L 247.86 164.94 L 249.47 165.80 L 251.21 166.55 L 252.84 167.30 L 254.51 167.95 L 256.23 168.71 L 257.87 169.45 L 259.62 170.09 L 261.28 170.84 L 263.00 171.51 L 264.71 172.24 L 266.36 173.06 L 268.04 173.89 L 269.69 174.81 L 271.28 175.88 L 272.97 176.82 L 274.57 178.02 L 276.19 179.17 L 277.76 180.51 L 279.34 181.94 L 280.82 183.58 L 282.40 185.16 L 283.88 186.97 L 285.39 188.80 L 286.92 190.81 L 288.32 192.78 L 289.75 194.85 L 291.21 197.03 L 292.68 199.31 L 294.06 201.48 L 295.41 203.79 L 296.89 206.04 L 298.26 208.40 L 299.71 210.65 L 301.19 212.94 L 302.53 215.24 L 303.94 217.48 L 305.37 219.73 L 306.82 221.95 L 308.25 224.05" fill="none" stroke="black" stroke-width="1"/>
  <path d="M 366.44 216.47 L 369.44 213.64" fill="none" stroke="black" stroke-width="1"/>
  <path d="M 383.59 157.55 L 385.09 154.28 L 386.52 150.92 L 388.00 147.64 L 389.55 144.33 L 391.10 140.99 L 392.63 137.75 L 394.23 134.48 L 395.73 131.17 L 397.27 127.88 L 398.79 124.59 L 400.25 121.30 L 401.80 117.98 L 403.30 114.60 L 404.69 111.34 L 406.08 108.01 L 407.44 104.64 L 408.67 101.25 L 410.01 97.89 L 411.23 94.41 L 412.35 91.05 L 413.44 87.61 L 414.44 84.13 L 415.31 80.67 L 416.30 77.13 L 417.08 73.58 L 417.98 70.07 L 418.76 66.48 L 419.51 62.96 L 420.21 59.43 L 420.94 55.81 L 421.56 52.20 L 422.30 48.65 L 422.91 45.08 L 423.63 41.47 L 424.28 37.85 L 424.98 34.29 L 425.67 30.77 L 426.38 27.14 L 427.09 23.56 L 427.87 20.01" fill="none" stroke="black" stroke-width="1"/>
  <path d="M 380.28 40.14 L 378.17 44.23" fill="none" stroke="black" stroke-width="1"/>
  <path d="M 390.92 73.49 L 389.16 77.44" fill="none" stroke="black" stroke-width="1"/>
  <path d="M 360.09 84.19 L 362.92 80.30" fill="none" stroke="black" stroke-width="1"/>
  <path d="M 370.22 112.49 L 366.24 113.67" fill="none" stroke="black" stroke-width="1"/>
  <path d="M 323.53 119.58 L 324.08 115.21" fill="none" stroke="black" stroke-width="1"/>
  <path d="M 312.35 110.97 L 312.96 106.46" fill="none" stroke="black" stroke-width="1"/>
  <path d="M 312.31 132.87 L 313.07 128.41" fill="none" stroke="black" stroke-width="1"/>
  <path d="M 308.89 128.94 L 307.49 133.20" fill="none" stroke="black" stroke-width="1"/>
  <path d="M 302.63 151.21 L 300.48 154.81" fill="none" stroke="black" stroke-width="1"/>
  <path d="M 285.99 168.54 L 286.42 166.88 L 286.89 165.22 L 287.35 163.55 L 287.80 161.89 L 288.30 160.24 L 288.73 158.57 L 289.15 156.87 L 289.65 155.24 L 290.10 153.53 L 290.58 151.91 L 291.04 150.31 L 291.49 148.59 L 291.89 146.93 L 292.38 145.27 L 292.75 143.63 L 293.25 141.94 L 293.62 140.25 L 294.08 138.62 L 294.49 137.00 L 294.88 135.30 L 295.25 133.60 L 295.63 131.97 L 295.95 130.36 L 296.35 128.65 L 296.70 126.95 L 297.03 125.34 L 297.31 123.65 L 297.69 122.02 L 298.06 120.42 L 298.33 118.70 L 298.58 117.07 L 298.96 115.38 L 299.33 113.77 L 299.58 112.06 L 299.83 110.37 L 300.21 108.75 L 300.57 107.13 L 300.84 105.43 L 301.17 103.80 L 301.50 102.11" fill="none" stroke="black" stroke-width="1"/>
  <path d="M 301.51 102.12 L 302.95 102.09 L 304.43 102.06 L 305.88 101.96 L 307.39 101.92 L 308.89 101.82 L 310.37 101.74 L 311.91 101.60 L 313.37 101.54 L 314.82 101.48 L 316.35 101.37 L 317.82 101.29 L 319.30 101.26 L 320.71 101.22 L 322.19 101.23 L 323.56 101.29 L 325.01 101.33 L 326.36 101.47 L 327.74 101.58 L 329.04 101.74 L 330.35 102.03 L 331.54 102.30 L 332.84 102.69 L 334.02 103.16 L 335.22 103.54 L 336.32 104.04 L 337.50 104.54 L 338.61 105.11 L 339.71 105.67 L 340.83 106.33 L 341.87 106.89 L 342.98 107.49 L 343.99 108.17 L 345.05 108.86 L 346.11 109.46 L 347.14 110.07 L 348.22 110.75 L 349.23 111.36 L 350.37 111.99 L 351.53 112.51 L 352.56 113.16" fill="none" stroke="black" stroke-width="1"/>
  <path d="M 352.53 113.17 L 351.06 114.89 L 349.68 116.54 L 348.27 118.21 L 346.90 119.98 L 345.50 121.73 L 344.15 123.47 L 342.78 125.25 L 341.41 126.97 L 340.10 128.75 L 338.65 130.45 L 337.31 132.16 L 335.85 133.87 L 334.37 135.51 L 332.98 137.21 L 331.51 138.83 L 330.01 140.42 L 328.50 141.94 L 326.92 143.48 L 325.35 144.96 L 323.68 146.36 L 321.94 147.63 L 320.27 149.02 L 318.44 150.22 L 316.71 151.50 L 314.88 152.67 L 313.03 153.82 L 311.13 154.91 L 309.26 156.02 L 307.28 157.10 L 305.41 158.13 L 303.41 159.20 L 301.52 160.19 L 299.62 161.16 L 297.61 162.23 L 295.68 163.30 L 293.71 164.28 L 291.73 165.36 L 289.85 166.37 L 288.01 167.39 L 286.05 168.54" fill="none" stroke="black" stroke-width="1"/>
  <path d="M 312.67 168.61 L 313.18 166.19 L 313.58 163.75 L 314.02 161.39 L 314.55 158.90 L 315.03 156.49 L 315.54 154.06 L 316.06 151.70 L 316.54 149.23 L 317.03 146.84 L 317.52 144.39 L 318.04 141.99 L 318.47 139.54 L 318.94 137.09 L 319.37 134.67 L 319.73 132.21 L 320.19 129.77 L 320.61 127.28 L 320.92 124.84 L 321.20 122.33 L 321.54 119.88 L 321.74 117.40 L 322.03 114.87 L 322.28 112.29 L 322.40 109.82 L 322.57 107.28 L 322.69 104.74 L 322.78 102.15 L 322.90 99.63 L 322.97 97.04 L 323.05 94.51 L 323.08 91.96 L 323.18 89.37 L 323.28 86.83 L 323.29 84.23 L 323.33 81.68 L 323.40 79.09 L 323.47 76.49 L 323.55 73.96 L 323.59 71.44 L 323.73 68.85" fill="none" stroke="black" stroke-width="1"/>
  <path d="M 355.82 66.30 L 358.00 62.51" fill="none" stroke="black" stroke-width="1"/>
  <path d="M 351.62 48.54 L 353.58 44.71" fill="none" stroke="black" stroke-width="1"/>
  <path d="M 347.01 29.04 L 344.94 33.23" fill="none" stroke="black" stroke-width="1"/>
  <path d="M 308.15 20.09 L 307.99 22.34 L 307.70 24.54 L 307.41 26.82 L 307.24 29.04 L 307.02 31.28 L 306.76 33.57 L 306.55 35.79 L 306.28 38.11 L 306.03 40.42 L 305.81 42.63 L 305.58 44.89 L 305.35 47.12 L 305.08 49.27 L 304.90 51.56 L 304.75 53.80 L 304.48 55.92 L 304.26 58.11 L 304.09 60.19 L 303.92 62.27 L 303.74 64.35 L 303.65 66.31 L 303.43 68.39 L 303.29 70.28 L 303.16 72.31 L 303.02 74.28 L 302.92 76.14 L 302.86 78.05 L 302.70 79.90 L 302.59 81.73 L 302.51 83.60 L 302.36 85.50 L 302.32 87.28 L 302.23 89.13 L 302.14 90.94 L 302.11 92.81 L 301.95 94.60 L 301.89 96.50 L 301.76 98.30 L 301.61 100.20 L 301.55 102.04" fill="none" stroke="black" stroke-width="1"/>
  <path d="M 301.50 102.03 L 303.80 103.73 L 305.97 105.41 L 308.24 107.17 L 310.49 108.87 L 312.74 110.67 L 315.03 112.37 L 317.26 114.17 L 319.58 115.89 L 321.82 117.63 L 324.11 119.38 L 326.38 121.13 L 328.62 122.82 L 330.83 124.43 L 333.06 126.17 L 335.24 127.83 L 337.44 129.39 L 339.54 130.95 L 341.72 132.46 L 343.81 133.88 L 345.89 135.34 L 347.85 136.72 L 349.93 138.00 L 351.88 139.18 L 353.86 140.48 L 355.71 141.63 L 357.69 142.79 L 359.59 143.86 L 361.45 144.99 L 363.30 146.10 L 365.15 147.09 L 367.04 148.07 L 368.82 149.14 L 370.66 150.22 L 372.48 151.17 L 374.37 152.15 L 376.15 153.21 L 378.05 154.25 L 379.84 155.29 L 381.69 156.37 L 383.58 157.45" fill="none" stroke="black" stroke-width="1"/>
  <path d="M 383.61 157.46 L 385.83 156.92 L 388.06 156.46 L 390.31 156.02 L 392.53 155.62 L 394.74 155.30 L 397.02 154.86 L 399.23 154.51 L 401.51 154.13 L 403.71 153.74 L 406.00 153.35 L 408.22 152.85 L 410.46 152.46 L 412.70 151.99 L 414.89 151.39 L 417.14 150.69 L 419.28 150.08 L 421.46 149.31 L 423.60 148.46 L 425.74 147.44 L 427.85 146.46 L 429.90 145.23 L 432.02 144.03 L 434.06 142.58 L 436.12 141.23 L 438.10 139.61 L 440.16 138.12 L 442.10 136.40 L 444.16 134.76 L 446.13 133.05 L 448.11 131.22 L 450.07 129.39 L 452.05 127.58 L 453.95 125.77 L 455.98 123.89 L 457.93 122.09 L 459.91 120.22 L 461.90 118.41 L 463.86 116.64 L 465.79 114.91 L 467.84 113.21" fill="none" stroke="black" stroke-width="1"/>
  <path d="M 467.83 113.11 L 468.03 110.95 L 468.31 108.70 L 468.59 106.54 L 468.86 104.32 L 469.12 102.08 L 469.44 99.95 L 469.76 97.78 L 470.03 95.59 L 470.33 93.43 L 470.60 91.22 L 470.92 89.02 L 471.12 86.83 L 471.34 84.67 L 471.58 82.40 L 471.70 80.21 L 471.94 77.93 L 472.02 75.68 L 472.17 73.39 L 472.24 71.09 L 472.25 68.78 L 472.24 66.42 L 472.16 64.09 L 471.99 61.69 L 471.93 59.32 L 471.79 56.96 L 471.56 54.49 L 471.31 52.11 L 471.10 49.61 L 470.83 47.14 L 470.57 44.69 L 470.27 42.27 L 469.99 39.76 L 469.68 37.28 L 469.40 34.81 L 469.17 32.28 L 468.82 29.87 L 468.52 27.46 L 468.27 24.95 L 467.96 22.48 L 467.78 20.05" fill="none" stroke="black" stroke-width="1"/>
  <path d="M 450.41 28.81 L 449.76 33.40" fill="none" stroke="black" stroke-width="1"/>
  <path d="M 446.08 51.21 L 444.89 55.39" fill="none" stroke="black" stroke-width="1"/>
  <path d="M 435.53 77.98 L 433.76 82.23" fill="none" stroke="black" stroke-width="1"/>
  <path d="M 424.34 100.25 L 422.43 104.15" fill="none" stroke="black" stroke-width="1"/>
  <path d="M 413.40 122.18 L 411.25 125.86" fill="none" stroke="black" stroke-width="1"/>
  <path d="M 457.97 184.91 L 455.23 187.93" fill="none" stroke="black" stroke-width="1"/>
  <path d="M 436.25 229.34 L 432.96 232.34" fill="none" stroke="black" stroke-width="1"/>
  <path d="M 447.56 284.82 L 444.03 287.47" fill="none" stroke="black" stroke-width="1"/>
  <path d="M 425.23 340.53 L 421.68 342.84" fill="none" stroke="black" stroke-width="1"/>
  <path d="M 381.29 311.55 L 377.07 313.48" fill="none" stroke="black" stroke-width="1"/>
  <path d="M 339.28 374.69 L 339.47 375.82 L 339.78 376.89 L 340.01 378.04 L 340.36 379.06 L 340.71 380.16 L 341.00 381.21 L 341.37 382.26 L 341.66 383.36 L 342.02 384.49 L 342.29 385.51 L 342.58 386.54 L 342.85 387.69 L 343.01 388.78 L 343.31 389.91 L 343.42 390.99 L 343.62 392.17 L 343.68 393.29 L 343.74 394.49 L 343.72 395.63 L 343.65 396.89 L 343.49 398.17 L 343.30 399.38 L 343.06 400.60 L 342.72 401.94 L 342.35 403.23 L 341.96 404.57 L 341.48 405.90 L 341.06 407.24 L 340.51 408.56 L 340.05 409.95 L 339.56 411.28 L 338.98 412.69 L 338.43 414.04 L 337.87 415.43 L 337.29 416.77 L 336.79 418.17 L 336.24 419.46 L 335.75 420.89 L 335.21 422.21 L 334.81 423.57" fill="none" stroke="black" stroke-width="1"/>
  <path d="M 321.12 443.34 L 321.68 447.84" fill="none" stroke="black" stroke-width="1"/>
  <path d="M 317.51 457.04 L 316.60 461.27" fill="none" stroke="black" stroke-width="1"/>
  <path d="M 335.58 472.49 L 333.75 476.55" fill="none" stroke="black" stroke-width="1"/>
  <path d="M 339.21 474.36 L 339.02 474.99 L 338.83 475.61 L 338.72 476.40 L 338.55 477.15 L 338.49 477.87 L 338.30 478.53 L 338.07 479.19 L 337.88 480.04 L 337.91 480.70 L 337.73 481.34 L 337.63 482.14 L 337.50 482.85 L 337.22 483.40 L 337.03 484.25 L 337.05 484.93 L 336.77 485.56 L 336.59 486.15 L 336.49 486.87 L 336.33 487.39 L 336.21 488.04 L 335.80 488.64 L 335.45 489.30 L 335.38 489.82 L 334.93 490.16 L 334.49 490.66 L 334.22 491.01 L 333.86 491.42 L 333.62 491.65 L 332.93 492.13 L 332.62 492.43 L 332.30 492.86 L 331.73 492.95 L 331.24 493.26 L 330.63 493.55 L 330.31 493.57 L 329.76 493.96 L 329.20 494.01 L 328.57 494.21 L 328.23 494.58 L 327.61 494.84 L 327.27 494.91 L 326.68 495.19 L 326.16 495.48 L 325.60 495.52 L 325.16 495.84 L 324.66 495.98 L 324.19 496.46 L 323.71 496.57" fill="none" stroke="black" stroke-width="1"/>
  <path d="M 314.49 510.90 L 311.09 513.93" fill="none" stroke="black" stroke-width="1"/>
  <path d="M 330.37 518.79 L 328.91 520.58 L 327.55 522.29 L 326.23 524.13 L 324.84 526.05 L 323.46 528.00 L 322.20 529.96 L 320.91 531.97 L 319.57 533.91 L 318.20 535.89 L 316.90 537.79 L 315.51 539.63 L 314.16 541.48 L 312.72 543.12 L 311.30 544.86 L 309.82 546.39 L 308.27 547.84 L 306.62 549.09 L 305.02 550.28 L 303.23 551.13 L 301.51 552.08 L 299.63 552.56 L 297.71 553.17 L 295.68 553.40 L 293.65 553.61 L 291.50 553.59 L 289.37 553.53 L 287.12 553.27 L 284.92 553.03 L 282.59 552.70 L 280.35 552.23 L 278.03 551.80 L 275.70 551.25 L 273.32 550.70 L 271.02 550.18 L 268.67 549.71 L 266.35 549.16 L 264.01 548.76 L 261.75 548.28 L 259.51 547.96 L 257.25 547.67" fill="none" stroke="black" stroke-width="1"/>
  <path d="M 224.00 552.15 L 226.04 552.56 L 228.00 552.93 L 229.99 553.43 L 232.02 553.89 L 233.97 554.48 L 236.05 554.96 L 238.00 555.56 L 240.08 556.05 L 242.12 556.56 L 244.10 557.09 L 246.07 557.59 L 248.12 558.00 L 250.13 558.31 L 252.12 558.70 L 254.09 558.89 L 256.09 559.10 L 258.08 559.11 L 260.02 559.13 L 261.96 558.96 L 263.92 558.72 L 265.81 558.26 L 267.78 557.79 L 269.71 557.10 L 271.59 556.42 L 273.51 555.55 L 275.37 554.68 L 277.30 553.72 L 279.13 552.64 L 281.02 551.57 L 282.87 550.40 L 284.76 549.20 L 286.59 548.02 L 288.47 546.82 L 290.32 545.58 L 292.22 544.34 L 294.04 543.18 L 295.94 542.00 L 297.77 540.88 L 299.60 539.81 L 301.52 538.76" fill="none" stroke="black" stroke-width="1"/>
  <path d="M 312.68 541.02 L 311.10 542.11 L 309.40 543.13 L 307.75 544.30 L 306.20 545.41 L 304.66 546.66 L 303.04 547.79 L 301.42 549.01 L 299.89 550.20 L 298.29 551.41 L 296.72 552.55 L 295.04 553.65 L 293.49 554.79 L 291.79 555.81 L 290.18 556.82 L 288.50 557.69 L 286.74 558.59 L 284.98 559.31 L 283.15 560.01 L 281.24 560.49 L 279.37 561.02 L 277.39 561.32 L 275.39 561.56 L 273.27 561.64 L 271.21 561.68 L 269.00 561.56 L 266.89 561.46 L 264.63 561.20 L 262.44 560.97 L 260.13 560.61 L 257.90 560.28 L 255.65 559.82 L 253.31 559.47 L 250.94 558.98 L 248.70 558.61 L 246.42 558.16 L 244.09 557.78 L 241.81 557.35 L 239.54 557.04 L 237.26 556.82 L 235.05 556.47" fill="none" stroke="black" stroke-width="1"/>
  <path d="M 246.08 552.10 L 248.34 552.42 L 250.57 552.68 L 252.91 553.14 L 255.13 553.48 L 257.38 553.98 L 259.73 554.40 L 262.07 554.81 L 264.35 555.35 L 266.66 555.79 L 268.94 556.24 L 271.22 556.54 L 273.48 556.98 L 275.75 557.22 L 277.93 557.46 L 280.06 557.52 L 282.26 557.61 L 284.29 557.42 L 286.43 557.32 L 288.48 556.86 L 290.42 556.50 L 292.25 555.82 L 294.19 555.10 L 295.94 554.09 L 297.77 553.17 L 299.46 552.02 L 301.20 550.80 L 302.89 549.41 L 304.51 548.09 L 306.10 546.56 L 307.73 545.14 L 309.29 543.57 L 310.89 542.02 L 312.53 540.42 L 314.04 538.85 L 315.57 537.23 L 317.19 535.71 L 318.73 534.26 L 320.38 532.69 L 322.00 531.23 L 323.66 529.89" fill="none" stroke="black" stroke-width="1"/>
  <path d="M 355.17 580.00 L 358.95 577.93" fill="none" stroke="black" stroke-width="1"/>
  <path d="M 399.64 564.39 L 403.52 561.91" fill="none" stroke="black" stroke-width="1"/>
  <path d="M 421.84 542.16 L 425.40 539.58" fill="none" stroke="black" stroke-width="1"/>
  <path d="M 443.50 486.57 L 447.60 484.26" fill="none" stroke="black" stroke-width="1"/>
  <path d="M 432.88 431.30 L 436.42 428.99" fill="none" stroke="black" stroke-width="1"/>
  <path d="M 455.00 387.08 L 458.92 384.49" fill="none" stroke="black" stroke-width="1"/>
  <path d="M 392.14 413.62 L 388.29 415.97" fill="none" stroke="black" stroke-width="1"/>
</svg>